<svg width="57" height="12" viewBox="0 0 57 12" fill="none" xmlns="http://www.w3.org/2000/svg">
<g style="mix-blend-mode:hard-light" opacity="0.5">
<mask id="path-1-outside-1_0_1124" maskUnits="userSpaceOnUse" x="0" y="0" width="57" height="12" fill="black">
<rect fill="white" width="57" height="12"/>
<path d="M2.75 10.25V8.5H1V3.25H2.75V1.5H13.25V3.25H4.5V8.5H13.25V10.25H2.75ZM16.75 10.25V8.5H15V6.75H16.75V5H23.75V3.25H16.75V1.5H25.5V3.25H27.25V10.25H16.75ZM18.5 8.5H23.75V6.75H18.5V8.5ZM34.25 3.25H36V5H34.25V10.25H30.75V1.5H34.25V3.25ZM41.25 1.5V3.25H36V1.5H41.25ZM44.75 10.25V8.5H43V3.25H44.75V1.5H53.5V3.25H55.25V6.75H46.5V8.5H53.5V10.25H44.75ZM46.5 5H51.75V3.25H46.5V5Z"/>
</mask>
<path d="M2.75 10.25V8.5H1V3.25H2.75V1.5H13.25V3.25H4.5V8.5H13.25V10.25H2.75ZM16.75 10.25V8.5H15V6.75H16.75V5H23.75V3.25H16.75V1.5H25.5V3.25H27.25V10.25H16.75ZM18.5 8.5H23.75V6.75H18.5V8.5ZM34.25 3.25H36V5H34.25V10.25H30.75V1.5H34.25V3.25ZM41.25 1.5V3.25H36V1.5H41.25ZM44.75 10.25V8.5H43V3.25H44.75V1.5H53.5V3.25H55.25V6.75H46.5V8.5H53.5V10.25H44.75ZM46.5 5H51.75V3.25H46.5V5Z" fill="black"/>
<path d="M2.75 10.25H1.75V11.25H2.75V10.25ZM2.75 8.5H3.75V7.5H2.75V8.5ZM1 8.5H0V9.5H1V8.5ZM1 3.25V2.25H0V3.25H1ZM2.75 3.25V4.25H3.75V3.25H2.75ZM2.75 1.5V0.499999H1.75V1.5H2.75ZM13.25 1.5H14.25V0.499999H13.25V1.5ZM13.25 3.25V4.25H14.25V3.25H13.25ZM4.5 3.25V2.25H3.5V3.25H4.5ZM4.5 8.5H3.5V9.5H4.5V8.5ZM13.25 8.5H14.25V7.5H13.25V8.5ZM13.25 10.25V11.25H14.25V10.25H13.25ZM3.75 10.25V8.5H1.75V10.25H3.75ZM2.75 7.5H1V9.5H2.75V7.5ZM2 8.5V3.25H0V8.5H2ZM1 4.25H2.75V2.25H1V4.25ZM3.75 3.25V1.5H1.75V3.25H3.75ZM2.75 2.5H13.25V0.499999H2.75V2.5ZM12.25 1.5V3.25H14.25V1.5H12.25ZM13.25 2.25H4.5V4.25H13.25V2.25ZM3.5 3.25V8.5H5.5V3.25H3.5ZM4.5 9.5H13.25V7.5H4.5V9.5ZM12.25 8.5V10.25H14.25V8.5H12.25ZM13.25 9.25H2.75V11.25H13.25V9.25ZM16.75 10.25H15.75V11.25H16.75V10.25ZM16.75 8.5H17.75V7.5H16.75V8.5ZM15 8.5H14V9.5H15V8.5ZM15 6.75V5.75H14V6.75H15ZM16.75 6.75V7.75H17.75V6.75H16.75ZM16.75 5V4H15.75V5H16.75ZM23.75 5V6H24.75V5H23.75ZM23.75 3.25H24.75V2.25H23.75V3.25ZM16.75 3.25H15.75V4.25H16.75V3.25ZM16.75 1.5V0.499999H15.75V1.5H16.75ZM25.5 1.5H26.5V0.499999H25.5V1.5ZM25.5 3.25H24.5V4.25H25.5V3.25ZM27.25 3.25H28.25V2.25H27.25V3.25ZM27.25 10.25V11.25H28.25V10.25H27.25ZM18.5 8.5H17.5V9.5H18.5V8.5ZM23.75 8.5V9.5H24.75V8.5H23.75ZM23.75 6.75H24.75V5.75H23.75V6.75ZM18.5 6.75V5.75H17.5V6.75H18.5ZM17.75 10.25V8.5H15.75V10.25H17.75ZM16.75 7.5H15V9.5H16.75V7.5ZM16 8.5V6.75H14V8.5H16ZM15 7.75H16.75V5.75H15V7.75ZM17.75 6.75V5H15.75V6.75H17.75ZM16.75 6H23.75V4H16.75V6ZM24.75 5V3.25H22.75V5H24.75ZM23.75 2.25H16.75V4.25H23.75V2.25ZM17.75 3.25V1.5H15.75V3.25H17.75ZM16.75 2.5H25.5V0.499999H16.75V2.5ZM24.5 1.5V3.25H26.5V1.5H24.5ZM25.5 4.25H27.25V2.25H25.5V4.25ZM26.25 3.25V10.25H28.25V3.25H26.25ZM27.25 9.25H16.75V11.25H27.25V9.25ZM18.5 9.5H23.75V7.5H18.5V9.5ZM24.75 8.5V6.75H22.75V8.5H24.75ZM23.75 5.75H18.5V7.75H23.75V5.75ZM17.5 6.75V8.5H19.5V6.75H17.5ZM34.25 3.25H33.25V4.25H34.25V3.25ZM36 3.25H37V2.25H36V3.25ZM36 5V6H37V5H36ZM34.25 5V4H33.25V5H34.25ZM34.25 10.25V11.25H35.25V10.25H34.25ZM30.75 10.25H29.75V11.25H30.75V10.25ZM30.75 1.5V0.499999H29.75V1.5H30.75ZM34.25 1.5H35.25V0.499999H34.25V1.5ZM41.25 1.5H42.25V0.499999H41.25V1.5ZM41.25 3.25V4.25H42.25V3.25H41.25ZM36 3.25H35V4.25H36V3.25ZM36 1.5V0.499999H35V1.5H36ZM34.25 4.25H36V2.25H34.25V4.25ZM35 3.25V5H37V3.25H35ZM36 4H34.25V6H36V4ZM33.25 5V10.25H35.25V5H33.25ZM34.25 9.25H30.75V11.25H34.25V9.25ZM31.75 10.25V1.5H29.75V10.25H31.75ZM30.75 2.5H34.25V0.499999H30.75V2.5ZM33.25 1.5V3.25H35.25V1.5H33.25ZM40.25 1.5V3.25H42.25V1.5H40.25ZM41.25 2.25H36V4.25H41.25V2.25ZM37 3.25V1.5H35V3.25H37ZM36 2.5H41.25V0.499999H36V2.5ZM44.75 10.25H43.75V11.25H44.75V10.25ZM44.75 8.5H45.75V7.5H44.75V8.5ZM43 8.5H42V9.5H43V8.5ZM43 3.25V2.25H42V3.25H43ZM44.75 3.25V4.25H45.75V3.25H44.75ZM44.75 1.5V0.499999H43.75V1.5H44.75ZM53.5 1.5H54.5V0.499999H53.5V1.5ZM53.5 3.25H52.5V4.25H53.5V3.25ZM55.25 3.25H56.25V2.25H55.25V3.25ZM55.25 6.75V7.75H56.25V6.75H55.25ZM46.5 6.75V5.75H45.5V6.75H46.5ZM46.5 8.5H45.5V9.5H46.5V8.5ZM53.5 8.5H54.5V7.5H53.5V8.5ZM53.5 10.25V11.25H54.5V10.25H53.5ZM46.5 5H45.5V6H46.5V5ZM51.75 5V6H52.75V5H51.75ZM51.75 3.25H52.75V2.25H51.75V3.25ZM46.5 3.25V2.25H45.5V3.25H46.5ZM45.75 10.25V8.5H43.75V10.25H45.75ZM44.75 7.5H43V9.5H44.75V7.5ZM44 8.5V3.25H42V8.5H44ZM43 4.25H44.75V2.25H43V4.25ZM45.75 3.25V1.5H43.75V3.25H45.75ZM44.75 2.5H53.5V0.499999H44.75V2.5ZM52.5 1.5V3.25H54.5V1.5H52.5ZM53.5 4.25H55.25V2.25H53.5V4.25ZM54.25 3.25V6.75H56.25V3.25H54.25ZM55.25 5.75H46.5V7.75H55.25V5.75ZM45.5 6.75V8.5H47.5V6.75H45.5ZM46.5 9.5H53.5V7.5H46.5V9.5ZM52.5 8.5V10.25H54.5V8.5H52.5ZM53.5 9.25H44.75V11.25H53.5V9.25ZM46.5 6H51.75V4H46.5V6ZM52.75 5V3.25H50.75V5H52.75ZM51.75 2.25H46.5V4.25H51.75V2.25ZM45.5 3.25V5H47.5V3.25H45.5Z" fill="white" mask="url(#path-1-outside-1_0_1124)"/>
</g>
</svg>
