<svg width="152" height="16" viewBox="0 0 152 16" fill="none" xmlns="http://www.w3.org/2000/svg">
<g style="mix-blend-mode:hard-light" opacity="0.5">
<mask id="path-1-outside-1_0_1087" maskUnits="userSpaceOnUse" x="0" y="0" width="152" height="16" fill="black">
<rect fill="white" width="152" height="16"/>
<path d="M7 13.25V11.5H5.25V9.75H3.5V8H1.75V6.25H3.5V4.5H5.25V2.75H7V1H10.5V2.75H8.75V4.5H7V6.25H5.25V8H7V9.75H8.75V11.5H10.5V13.25H7ZM15.75 13.25V11.5H14V6.25H15.75V4.5H22.75V1H26.25V13.25H15.75ZM17.5 11.5H22.75V6.25H17.5V11.5ZM29.75 13.25V11.5H28V6.25H29.75V4.5H38.5V6.25H40.25V9.75H31.5V11.5H38.5V13.25H29.75ZM31.5 8H36.75V6.25H31.5V8ZM42 13.25V11.5H50.75V9.75H43.75V8H42V6.25H43.75V4.5H52.5V6.25H45.5V8H52.5V9.75H54.25V11.5H52.5V13.25H42ZM61.25 2.75V1H64.75V2.75H61.25ZM57.75 13.25V11.5H61.25V6.25H59.5V4.5H64.75V11.5H68.25V13.25H57.75ZM71.75 15V13.25H78.75V11.5H71.75V9.75H70V6.25H71.75V4.5H82.25V13.25H80.5V15H71.75ZM73.5 9.75H78.75V6.25H73.5V9.75ZM89.25 2.75V1H92.75V2.75H89.25ZM85.75 13.25V11.5H89.25V6.25H87.5V4.5H92.75V11.5H96.25V13.25H85.75ZM99.75 13.25V11.5H98V6.25H99.75V4.5H108.5V6.25H110.25V11.5H108.5V13.25H99.75ZM101.5 11.5H106.75V6.25H101.5V11.5ZM112 13.25V4.5H122.5V6.25H124.25V13.25H120.75V6.25H115.5V13.25H112ZM126 13.25V11.5H134.75V9.75H127.75V8H126V6.25H127.75V4.5H136.5V6.25H129.5V8H136.5V9.75H138.25V11.5H136.5V13.25H126ZM141.75 13.25V11.5H143.5V9.75H145.25V8H147V6.25H145.25V4.5H143.5V2.75H141.75V1H145.25V2.75H147V4.5H148.75V6.25H150.5V8H148.75V9.75H147V11.5H145.25V13.25H141.75Z"/>
</mask>
<path d="M7 13.25V11.5H5.25V9.75H3.5V8H1.75V6.25H3.5V4.5H5.25V2.75H7V1H10.5V2.75H8.75V4.5H7V6.25H5.25V8H7V9.75H8.75V11.5H10.5V13.25H7ZM15.75 13.25V11.5H14V6.25H15.75V4.5H22.75V1H26.25V13.25H15.75ZM17.5 11.5H22.75V6.25H17.5V11.5ZM29.75 13.25V11.5H28V6.25H29.75V4.5H38.5V6.25H40.25V9.75H31.5V11.5H38.5V13.25H29.75ZM31.5 8H36.75V6.25H31.5V8ZM42 13.25V11.5H50.75V9.75H43.75V8H42V6.25H43.75V4.5H52.5V6.25H45.5V8H52.5V9.75H54.25V11.5H52.5V13.25H42ZM61.25 2.75V1H64.75V2.75H61.25ZM57.75 13.25V11.5H61.25V6.25H59.5V4.5H64.75V11.5H68.25V13.25H57.75ZM71.75 15V13.25H78.75V11.5H71.75V9.75H70V6.25H71.75V4.5H82.25V13.25H80.5V15H71.75ZM73.5 9.75H78.75V6.25H73.5V9.75ZM89.25 2.75V1H92.75V2.75H89.25ZM85.75 13.25V11.5H89.25V6.25H87.5V4.5H92.75V11.5H96.25V13.25H85.75ZM99.75 13.25V11.5H98V6.25H99.75V4.5H108.5V6.25H110.25V11.5H108.5V13.25H99.75ZM101.5 11.5H106.75V6.25H101.5V11.5ZM112 13.25V4.5H122.5V6.25H124.25V13.25H120.75V6.25H115.5V13.25H112ZM126 13.25V11.5H134.75V9.75H127.75V8H126V6.25H127.75V4.5H136.5V6.25H129.5V8H136.5V9.75H138.25V11.5H136.5V13.25H126ZM141.75 13.25V11.5H143.5V9.75H145.25V8H147V6.25H145.25V4.5H143.5V2.75H141.75V1H145.25V2.75H147V4.5H148.75V6.25H150.5V8H148.75V9.75H147V11.5H145.25V13.25H141.75Z" fill="black"/>
<path d="M7 13.25H6V14.25H7V13.25ZM7 11.5H8V10.5H7V11.5ZM5.25 11.5H4.25V12.5H5.25V11.5ZM5.25 9.75H6.25V8.75H5.25V9.75ZM3.5 9.75H2.5V10.75H3.5V9.75ZM3.5 8H4.5V7H3.5V8ZM1.75 8H0.75V9H1.75V8ZM1.75 6.25V5.25H0.75V6.25H1.75ZM3.5 6.25V7.25H4.5V6.25H3.5ZM3.5 4.5V3.5H2.5V4.5H3.5ZM5.25 4.5V5.5H6.25V4.5H5.25ZM5.25 2.75V1.75H4.25V2.75H5.25ZM7 2.75V3.75H8V2.75H7ZM7 1V0H6V1H7ZM10.5 1H11.5V0H10.5V1ZM10.5 2.75V3.75H11.5V2.75H10.5ZM8.75 2.75V1.75H7.75V2.75H8.75ZM8.75 4.5V5.5H9.75V4.5H8.75ZM7 4.5V3.5H6V4.5H7ZM7 6.25V7.25H8V6.25H7ZM5.25 6.25V5.25H4.25V6.25H5.25ZM5.25 8H4.25V9H5.25V8ZM7 8H8V7H7V8ZM7 9.75H6V10.75H7V9.75ZM8.75 9.75H9.75V8.75H8.75V9.75ZM8.75 11.5H7.75V12.5H8.75V11.5ZM10.5 11.5H11.5V10.5H10.5V11.5ZM10.5 13.25V14.25H11.5V13.25H10.5ZM8 13.25V11.5H6V13.25H8ZM7 10.5H5.25V12.5H7V10.5ZM6.25 11.5V9.75H4.25V11.5H6.25ZM5.25 8.75H3.5V10.75H5.25V8.75ZM4.5 9.75V8H2.5V9.75H4.5ZM3.5 7H1.75V9H3.5V7ZM2.75 8V6.25H0.75V8H2.75ZM1.75 7.25H3.5V5.25H1.75V7.25ZM4.5 6.25V4.5H2.5V6.25H4.5ZM3.5 5.5H5.25V3.5H3.5V5.5ZM6.25 4.5V2.75H4.25V4.5H6.25ZM5.25 3.75H7V1.75H5.25V3.75ZM8 2.75V1H6V2.75H8ZM7 2H10.5V0H7V2ZM9.5 1V2.75H11.5V1H9.5ZM10.5 1.75H8.75V3.75H10.5V1.75ZM7.75 2.75V4.5H9.75V2.75H7.75ZM8.75 3.5H7V5.5H8.75V3.5ZM6 4.5V6.25H8V4.5H6ZM7 5.25H5.25V7.25H7V5.25ZM4.25 6.25V8H6.25V6.25H4.25ZM5.25 9H7V7H5.25V9ZM6 8V9.75H8V8H6ZM7 10.75H8.75V8.75H7V10.75ZM7.75 9.75V11.5H9.75V9.75H7.75ZM8.75 12.5H10.5V10.5H8.75V12.5ZM9.5 11.5V13.25H11.5V11.5H9.5ZM10.5 12.25H7V14.25H10.5V12.25ZM15.75 13.25H14.75V14.25H15.75V13.25ZM15.75 11.5H16.75V10.5H15.75V11.5ZM14 11.5H13V12.5H14V11.5ZM14 6.25V5.25H13V6.25H14ZM15.75 6.25V7.25H16.75V6.25H15.75ZM15.75 4.5V3.5H14.75V4.5H15.75ZM22.75 4.5V5.5H23.75V4.5H22.75ZM22.75 1V0H21.75V1H22.75ZM26.25 1H27.25V0H26.25V1ZM26.25 13.25V14.25H27.25V13.25H26.25ZM17.5 11.5H16.5V12.5H17.5V11.5ZM22.75 11.5V12.5H23.75V11.5H22.75ZM22.75 6.25H23.75V5.25H22.75V6.25ZM17.5 6.25V5.25H16.5V6.25H17.5ZM16.75 13.25V11.5H14.75V13.25H16.75ZM15.75 10.5H14V12.5H15.75V10.5ZM15 11.5V6.25H13V11.5H15ZM14 7.25H15.75V5.25H14V7.25ZM16.75 6.25V4.5H14.75V6.25H16.75ZM15.75 5.5H22.75V3.5H15.75V5.5ZM23.75 4.5V1H21.75V4.5H23.75ZM22.75 2H26.25V0H22.75V2ZM25.25 1V13.25H27.25V1H25.25ZM26.25 12.25H15.75V14.25H26.25V12.25ZM17.5 12.5H22.75V10.5H17.5V12.5ZM23.75 11.5V6.25H21.75V11.5H23.75ZM22.75 5.25H17.5V7.25H22.75V5.25ZM16.5 6.25V11.5H18.5V6.25H16.5ZM29.75 13.25H28.75V14.25H29.75V13.25ZM29.75 11.5H30.75V10.5H29.75V11.5ZM28 11.5H27V12.5H28V11.5ZM28 6.25V5.25H27V6.25H28ZM29.75 6.25V7.25H30.75V6.25H29.75ZM29.75 4.5V3.5H28.75V4.5H29.75ZM38.5 4.5H39.5V3.5H38.5V4.5ZM38.5 6.25H37.5V7.25H38.5V6.25ZM40.25 6.25H41.25V5.25H40.25V6.25ZM40.25 9.75V10.75H41.25V9.75H40.25ZM31.5 9.75V8.75H30.5V9.75H31.5ZM31.5 11.5H30.5V12.5H31.5V11.5ZM38.5 11.5H39.5V10.5H38.5V11.5ZM38.5 13.25V14.25H39.5V13.25H38.5ZM31.5 8H30.5V9H31.5V8ZM36.75 8V9H37.75V8H36.75ZM36.75 6.25H37.75V5.25H36.75V6.25ZM31.5 6.25V5.25H30.5V6.25H31.5ZM30.75 13.25V11.5H28.75V13.25H30.75ZM29.75 10.5H28V12.5H29.75V10.5ZM29 11.5V6.25H27V11.5H29ZM28 7.25H29.75V5.25H28V7.25ZM30.75 6.25V4.5H28.75V6.25H30.75ZM29.75 5.5H38.5V3.5H29.75V5.5ZM37.5 4.5V6.25H39.5V4.5H37.5ZM38.5 7.25H40.25V5.25H38.5V7.25ZM39.25 6.25V9.75H41.25V6.25H39.25ZM40.25 8.75H31.5V10.75H40.25V8.75ZM30.5 9.75V11.5H32.5V9.75H30.5ZM31.5 12.5H38.5V10.5H31.5V12.5ZM37.5 11.5V13.25H39.5V11.5H37.5ZM38.5 12.25H29.75V14.25H38.5V12.25ZM31.5 9H36.75V7H31.5V9ZM37.75 8V6.25H35.75V8H37.75ZM36.75 5.25H31.5V7.25H36.75V5.25ZM30.5 6.25V8H32.5V6.25H30.5ZM42 13.25H41V14.25H42V13.25ZM42 11.5V10.5H41V11.5H42ZM50.75 11.5V12.5H51.75V11.5H50.75ZM50.75 9.75H51.75V8.75H50.75V9.75ZM43.75 9.75H42.75V10.75H43.75V9.75ZM43.75 8H44.75V7H43.75V8ZM42 8H41V9H42V8ZM42 6.25V5.25H41V6.25H42ZM43.75 6.25V7.25H44.75V6.25H43.75ZM43.75 4.5V3.5H42.75V4.5H43.75ZM52.5 4.5H53.5V3.5H52.5V4.5ZM52.5 6.25V7.25H53.5V6.25H52.5ZM45.5 6.25V5.25H44.5V6.25H45.5ZM45.5 8H44.5V9H45.5V8ZM52.5 8H53.5V7H52.5V8ZM52.5 9.75H51.5V10.75H52.5V9.75ZM54.25 9.75H55.25V8.75H54.25V9.75ZM54.25 11.5V12.5H55.25V11.5H54.25ZM52.5 11.5V10.5H51.5V11.5H52.5ZM52.5 13.25V14.25H53.5V13.25H52.5ZM43 13.25V11.5H41V13.25H43ZM42 12.5H50.75V10.5H42V12.5ZM51.75 11.5V9.75H49.75V11.5H51.75ZM50.75 8.75H43.75V10.75H50.75V8.75ZM44.75 9.75V8H42.75V9.75H44.75ZM43.75 7H42V9H43.75V7ZM43 8V6.25H41V8H43ZM42 7.25H43.75V5.25H42V7.25ZM44.75 6.25V4.5H42.75V6.25H44.75ZM43.75 5.5H52.5V3.5H43.75V5.5ZM51.5 4.5V6.25H53.5V4.5H51.5ZM52.5 5.25H45.5V7.25H52.5V5.25ZM44.5 6.25V8H46.5V6.25H44.5ZM45.5 9H52.5V7H45.5V9ZM51.5 8V9.75H53.5V8H51.5ZM52.5 10.75H54.25V8.75H52.5V10.75ZM53.25 9.75V11.5H55.25V9.75H53.25ZM54.25 10.5H52.5V12.5H54.25V10.5ZM51.5 11.5V13.25H53.5V11.5H51.5ZM52.5 12.25H42V14.25H52.5V12.25ZM61.25 2.75H60.25V3.75H61.25V2.75ZM61.25 1V0H60.25V1H61.25ZM64.75 1H65.75V0H64.75V1ZM64.75 2.75V3.75H65.75V2.75H64.75ZM57.75 13.25H56.75V14.25H57.75V13.25ZM57.75 11.5V10.5H56.75V11.5H57.75ZM61.25 11.5V12.5H62.25V11.5H61.25ZM61.25 6.25H62.25V5.25H61.25V6.25ZM59.5 6.25H58.5V7.25H59.5V6.25ZM59.5 4.5V3.5H58.5V4.5H59.5ZM64.75 4.5H65.75V3.5H64.75V4.5ZM64.75 11.5H63.75V12.5H64.75V11.5ZM68.25 11.5H69.25V10.5H68.25V11.5ZM68.25 13.25V14.25H69.25V13.25H68.25ZM62.25 2.75V1H60.25V2.75H62.25ZM61.25 2H64.75V0H61.25V2ZM63.75 1V2.75H65.75V1H63.75ZM64.75 1.75H61.25V3.75H64.75V1.75ZM58.75 13.25V11.5H56.75V13.25H58.75ZM57.75 12.5H61.25V10.5H57.75V12.5ZM62.25 11.5V6.25H60.25V11.5H62.25ZM61.25 5.25H59.5V7.25H61.25V5.25ZM60.5 6.25V4.5H58.5V6.25H60.5ZM59.5 5.5H64.75V3.5H59.5V5.5ZM63.75 4.5V11.5H65.75V4.5H63.75ZM64.75 12.5H68.25V10.5H64.75V12.5ZM67.25 11.5V13.25H69.25V11.5H67.25ZM68.25 12.25H57.75V14.25H68.25V12.25ZM71.75 15H70.75V16H71.75V15ZM71.75 13.25V12.25H70.75V13.25H71.75ZM78.75 13.25V14.25H79.75V13.25H78.75ZM78.75 11.5H79.75V10.5H78.75V11.5ZM71.75 11.5H70.75V12.5H71.75V11.5ZM71.75 9.75H72.75V8.75H71.75V9.75ZM70 9.75H69V10.75H70V9.75ZM70 6.25V5.25H69V6.25H70ZM71.75 6.25V7.25H72.75V6.25H71.75ZM71.75 4.5V3.5H70.75V4.5H71.75ZM82.25 4.5H83.25V3.5H82.25V4.5ZM82.25 13.25V14.25H83.25V13.25H82.25ZM80.5 13.25V12.25H79.5V13.25H80.5ZM80.5 15V16H81.5V15H80.5ZM73.5 9.75H72.5V10.75H73.5V9.75ZM78.75 9.75V10.75H79.75V9.75H78.75ZM78.75 6.25H79.75V5.25H78.75V6.25ZM73.5 6.25V5.25H72.5V6.25H73.5ZM72.75 15V13.25H70.75V15H72.75ZM71.75 14.25H78.75V12.25H71.75V14.25ZM79.75 13.25V11.5H77.75V13.25H79.75ZM78.75 10.5H71.75V12.5H78.75V10.5ZM72.75 11.5V9.75H70.75V11.5H72.75ZM71.75 8.75H70V10.75H71.75V8.75ZM71 9.75V6.25H69V9.75H71ZM70 7.25H71.75V5.25H70V7.25ZM72.75 6.25V4.5H70.75V6.25H72.75ZM71.75 5.5H82.25V3.5H71.75V5.5ZM81.25 4.5V13.25H83.25V4.5H81.25ZM82.25 12.25H80.5V14.25H82.25V12.25ZM79.5 13.25V15H81.5V13.25H79.5ZM80.5 14H71.75V16H80.5V14ZM73.5 10.75H78.75V8.75H73.5V10.75ZM79.75 9.75V6.25H77.75V9.75H79.75ZM78.75 5.25H73.5V7.25H78.75V5.25ZM72.5 6.25V9.75H74.5V6.25H72.5ZM89.25 2.75H88.25V3.75H89.25V2.75ZM89.25 1V0H88.25V1H89.25ZM92.75 1H93.75V0H92.75V1ZM92.75 2.75V3.75H93.75V2.75H92.75ZM85.75 13.25H84.75V14.25H85.75V13.25ZM85.75 11.5V10.5H84.75V11.5H85.75ZM89.25 11.5V12.5H90.25V11.5H89.25ZM89.25 6.25H90.25V5.25H89.25V6.25ZM87.5 6.25H86.5V7.25H87.5V6.25ZM87.5 4.5V3.5H86.5V4.5H87.5ZM92.75 4.5H93.75V3.5H92.75V4.5ZM92.75 11.5H91.75V12.5H92.75V11.5ZM96.25 11.5H97.25V10.5H96.25V11.5ZM96.25 13.25V14.25H97.25V13.25H96.25ZM90.25 2.75V1H88.25V2.75H90.25ZM89.25 2H92.75V0H89.25V2ZM91.75 1V2.75H93.75V1H91.75ZM92.75 1.75H89.25V3.75H92.75V1.75ZM86.75 13.25V11.5H84.75V13.25H86.75ZM85.75 12.5H89.25V10.5H85.75V12.5ZM90.25 11.5V6.25H88.25V11.5H90.25ZM89.25 5.25H87.5V7.25H89.25V5.25ZM88.5 6.25V4.5H86.5V6.25H88.5ZM87.5 5.5H92.75V3.5H87.5V5.5ZM91.75 4.5V11.5H93.75V4.5H91.75ZM92.75 12.5H96.25V10.5H92.75V12.5ZM95.25 11.5V13.25H97.25V11.5H95.25ZM96.25 12.25H85.75V14.25H96.25V12.25ZM99.75 13.25H98.75V14.25H99.75V13.25ZM99.75 11.5H100.75V10.5H99.75V11.5ZM98 11.5H97V12.5H98V11.5ZM98 6.25V5.25H97V6.25H98ZM99.75 6.25V7.25H100.75V6.25H99.75ZM99.75 4.5V3.5H98.75V4.5H99.75ZM108.5 4.5H109.5V3.5H108.5V4.5ZM108.5 6.25H107.5V7.25H108.5V6.25ZM110.25 6.25H111.25V5.25H110.25V6.25ZM110.25 11.5V12.5H111.25V11.5H110.25ZM108.5 11.5V10.5H107.5V11.5H108.5ZM108.5 13.25V14.25H109.5V13.25H108.5ZM101.5 11.5H100.5V12.5H101.5V11.5ZM106.75 11.5V12.5H107.75V11.5H106.75ZM106.75 6.25H107.75V5.25H106.75V6.25ZM101.5 6.25V5.25H100.5V6.25H101.5ZM100.75 13.25V11.5H98.75V13.25H100.75ZM99.75 10.5H98V12.5H99.75V10.5ZM99 11.5V6.25H97V11.5H99ZM98 7.25H99.75V5.25H98V7.25ZM100.75 6.25V4.5H98.75V6.25H100.75ZM99.75 5.5H108.5V3.5H99.75V5.5ZM107.5 4.5V6.25H109.5V4.5H107.5ZM108.5 7.25H110.25V5.25H108.5V7.25ZM109.25 6.25V11.5H111.25V6.25H109.25ZM110.25 10.5H108.5V12.5H110.25V10.5ZM107.5 11.5V13.25H109.5V11.5H107.5ZM108.5 12.25H99.75V14.25H108.5V12.25ZM101.5 12.5H106.75V10.5H101.5V12.5ZM107.75 11.5V6.25H105.75V11.5H107.75ZM106.75 5.25H101.5V7.25H106.75V5.25ZM100.5 6.25V11.5H102.5V6.25H100.5ZM112 13.25H111V14.25H112V13.25ZM112 4.5V3.5H111V4.5H112ZM122.5 4.5H123.5V3.5H122.5V4.5ZM122.5 6.25H121.5V7.25H122.5V6.25ZM124.25 6.25H125.25V5.25H124.25V6.25ZM124.25 13.25V14.25H125.25V13.25H124.25ZM120.75 13.25H119.75V14.25H120.75V13.25ZM120.75 6.25H121.75V5.25H120.75V6.25ZM115.5 6.25V5.25H114.5V6.25H115.5ZM115.5 13.25V14.25H116.5V13.25H115.5ZM113 13.25V4.5H111V13.25H113ZM112 5.5H122.5V3.5H112V5.5ZM121.5 4.5V6.25H123.5V4.5H121.5ZM122.5 7.25H124.25V5.25H122.5V7.25ZM123.25 6.25V13.25H125.25V6.25H123.25ZM124.25 12.25H120.75V14.25H124.25V12.25ZM121.75 13.25V6.25H119.75V13.25H121.75ZM120.75 5.25H115.5V7.25H120.75V5.25ZM114.5 6.25V13.25H116.5V6.25H114.5ZM115.5 12.25H112V14.25H115.5V12.25ZM126 13.25H125V14.25H126V13.25ZM126 11.5V10.5H125V11.5H126ZM134.75 11.5V12.5H135.75V11.5H134.75ZM134.75 9.75H135.75V8.75H134.75V9.75ZM127.75 9.75H126.75V10.75H127.75V9.75ZM127.75 8H128.75V7H127.75V8ZM126 8H125V9H126V8ZM126 6.25V5.25H125V6.25H126ZM127.75 6.25V7.25H128.75V6.25H127.75ZM127.75 4.5V3.5H126.75V4.5H127.75ZM136.5 4.5H137.5V3.5H136.5V4.5ZM136.5 6.25V7.25H137.5V6.25H136.5ZM129.5 6.25V5.25H128.5V6.25H129.5ZM129.5 8H128.5V9H129.5V8ZM136.5 8H137.5V7H136.5V8ZM136.5 9.75H135.5V10.75H136.5V9.75ZM138.25 9.75H139.25V8.75H138.25V9.75ZM138.25 11.5V12.5H139.25V11.5H138.25ZM136.5 11.5V10.5H135.5V11.5H136.5ZM136.5 13.25V14.25H137.5V13.25H136.5ZM127 13.25V11.5H125V13.25H127ZM126 12.5H134.75V10.5H126V12.5ZM135.75 11.5V9.75H133.75V11.5H135.75ZM134.75 8.75H127.75V10.75H134.75V8.75ZM128.75 9.75V8H126.75V9.75H128.75ZM127.75 7H126V9H127.75V7ZM127 8V6.25H125V8H127ZM126 7.25H127.75V5.25H126V7.25ZM128.75 6.25V4.5H126.75V6.25H128.75ZM127.75 5.5H136.5V3.5H127.75V5.5ZM135.5 4.5V6.25H137.5V4.5H135.5ZM136.5 5.25H129.5V7.25H136.5V5.25ZM128.5 6.25V8H130.5V6.25H128.5ZM129.5 9H136.5V7H129.5V9ZM135.5 8V9.75H137.5V8H135.5ZM136.5 10.75H138.25V8.75H136.5V10.75ZM137.25 9.75V11.5H139.25V9.75H137.25ZM138.25 10.5H136.5V12.5H138.25V10.5ZM135.5 11.5V13.25H137.5V11.5H135.5ZM136.5 12.25H126V14.25H136.5V12.25ZM141.75 13.25H140.75V14.25H141.75V13.25ZM141.75 11.5V10.5H140.75V11.5H141.75ZM143.5 11.5V12.5H144.5V11.5H143.5ZM143.5 9.75V8.75H142.5V9.75H143.5ZM145.25 9.75V10.75H146.25V9.75H145.25ZM145.25 8V7H144.25V8H145.25ZM147 8V9H148V8H147ZM147 6.25H148V5.25H147V6.25ZM145.25 6.25H144.25V7.25H145.25V6.25ZM145.25 4.5H146.25V3.5H145.25V4.5ZM143.5 4.5H142.5V5.5H143.5V4.5ZM143.5 2.75H144.5V1.75H143.5V2.75ZM141.75 2.75H140.75V3.75H141.75V2.75ZM141.75 1V0H140.75V1H141.75ZM145.25 1H146.25V0H145.25V1ZM145.25 2.75H144.25V3.75H145.25V2.75ZM147 2.75H148V1.75H147V2.75ZM147 4.5H146V5.5H147V4.5ZM148.75 4.5H149.75V3.5H148.75V4.5ZM148.75 6.25H147.75V7.25H148.75V6.25ZM150.5 6.25H151.5V5.25H150.5V6.25ZM150.5 8V9H151.5V8H150.5ZM148.75 8V7H147.75V8H148.75ZM148.75 9.75V10.75H149.75V9.75H148.75ZM147 9.75V8.75H146V9.75H147ZM147 11.5V12.5H148V11.5H147ZM145.25 11.5V10.5H144.25V11.5H145.25ZM145.25 13.25V14.25H146.25V13.25H145.25ZM142.75 13.25V11.5H140.75V13.25H142.75ZM141.75 12.5H143.5V10.5H141.75V12.5ZM144.5 11.5V9.75H142.5V11.5H144.5ZM143.5 10.75H145.25V8.75H143.5V10.75ZM146.25 9.75V8H144.25V9.75H146.25ZM145.25 9H147V7H145.25V9ZM148 8V6.25H146V8H148ZM147 5.25H145.25V7.25H147V5.25ZM146.25 6.25V4.5H144.25V6.25H146.25ZM145.25 3.5H143.5V5.5H145.25V3.5ZM144.5 4.5V2.75H142.5V4.5H144.5ZM143.5 1.75H141.75V3.75H143.5V1.75ZM142.75 2.75V1H140.75V2.75H142.75ZM141.75 2H145.25V0H141.75V2ZM144.25 1V2.75H146.25V1H144.25ZM145.25 3.75H147V1.75H145.25V3.75ZM146 2.75V4.5H148V2.75H146ZM147 5.5H148.75V3.5H147V5.5ZM147.75 4.5V6.25H149.75V4.5H147.75ZM148.75 7.25H150.5V5.25H148.75V7.25ZM149.5 6.25V8H151.5V6.25H149.5ZM150.5 7H148.75V9H150.5V7ZM147.75 8V9.75H149.75V8H147.75ZM148.75 8.75H147V10.75H148.75V8.75ZM146 9.75V11.5H148V9.75H146ZM147 10.5H145.25V12.5H147V10.5ZM144.25 11.5V13.25H146.25V11.5H144.25ZM145.25 12.25H141.75V14.25H145.25V12.25Z" fill="white" mask="url(#path-1-outside-1_0_1087)"/>
</g>
</svg>
