<svg width="278" height="16" viewBox="0 0 278 16" fill="none" xmlns="http://www.w3.org/2000/svg">
<g style="mix-blend-mode:hard-light" opacity="0.5">
<mask id="path-1-outside-1_0_1198" maskUnits="userSpaceOnUse" x="0" y="0" width="278" height="16" fill="black">
<rect fill="white" width="278" height="16"/>
<path d="M7 13.25V11.5H5.25V9.75H3.5V8H1.75V6.25H3.5V4.5H5.25V2.75H7V1H10.5V2.75H8.75V4.5H7V6.25H5.25V8H7V9.75H8.75V11.5H10.5V13.25H7ZM15.75 13.25V11.5H19.25V2.75H17.5V1H22.75V11.5H26.25V13.25H15.75ZM33.25 2.75V1H36.75V2.75H33.25ZM29.75 13.25V11.5H33.25V6.25H31.5V4.5H36.75V11.5H40.25V13.25H29.75ZM47.25 13.25V6.25H43.75V4.5H47.25V2.75H49V1H54.25V2.75H50.75V4.5H54.25V6.25H50.75V13.25H47.25ZM57.75 13.25V11.5H56V6.25H57.75V4.5H66.5V6.25H68.25V9.75H59.5V11.5H66.5V13.25H57.75ZM59.5 8H64.75V6.25H59.5V8ZM70 13.25V11.5H78.75V9.75H71.75V8H70V6.25H71.75V4.5H80.5V6.25H73.5V8H80.5V9.75H82.25V11.5H80.5V13.25H70ZM85.75 8V6.25H96.25V8H85.75ZM98 13.25V11.5H106.75V9.75H99.75V8H98V6.25H99.75V4.5H108.5V6.25H101.5V8H108.5V9.75H110.25V11.5H108.5V13.25H98ZM117.25 13.25V6.25H113.75V4.5H117.25V1H120.75V4.5H124.25V6.25H120.75V13.25H117.25ZM127.75 15V13.25H134.75V11.5H127.75V9.75H126V4.5H129.5V9.75H134.75V4.5H138.25V13.25H136.5V15H127.75ZM141.75 13.25V11.5H145.25V2.75H143.5V1H148.75V11.5H152.25V13.25H141.75ZM155.75 13.25V11.5H154V6.25H155.75V4.5H164.5V6.25H166.25V9.75H157.5V11.5H164.5V13.25H155.75ZM157.5 8H162.75V6.25H157.5V8ZM171.5 6.25V2.75H175V6.25H171.5ZM171.5 11.5V8H175V11.5H171.5ZM196 13.25V4.5H206.5V6.25H208.25V13.25H204.75V6.25H199.5V13.25H196ZM211.75 13.25V11.5H210V6.25H211.75V4.5H220.5V6.25H222.25V11.5H220.5V13.25H211.75ZM213.5 11.5H218.75V6.25H213.5V11.5ZM224 13.25V4.5H234.5V6.25H236.25V13.25H232.75V6.25H227.5V13.25H224ZM239.75 13.25V11.5H238V6.25H239.75V4.5H248.5V6.25H250.25V9.75H241.5V11.5H248.5V13.25H239.75ZM241.5 8H246.75V6.25H241.5V8ZM255.5 6.25V2.75H259V6.25H255.5ZM253.75 13.25V11.5H255.5V8H259V11.5H257.25V13.25H253.75ZM267.75 13.25V11.5H269.5V9.75H271.25V8H273V6.25H271.25V4.5H269.5V2.75H267.75V1H271.25V2.75H273V4.5H274.75V6.25H276.5V8H274.75V9.75H273V11.5H271.25V13.25H267.75Z"/>
</mask>
<path d="M7 13.25V11.5H5.25V9.75H3.5V8H1.75V6.25H3.5V4.5H5.25V2.75H7V1H10.5V2.75H8.75V4.5H7V6.25H5.25V8H7V9.75H8.75V11.5H10.5V13.25H7ZM15.75 13.25V11.5H19.25V2.75H17.5V1H22.75V11.5H26.25V13.25H15.75ZM33.25 2.75V1H36.75V2.75H33.25ZM29.75 13.25V11.5H33.25V6.25H31.5V4.5H36.75V11.5H40.25V13.25H29.75ZM47.25 13.25V6.25H43.75V4.5H47.25V2.75H49V1H54.25V2.75H50.75V4.5H54.25V6.25H50.75V13.25H47.25ZM57.75 13.25V11.5H56V6.25H57.75V4.5H66.5V6.25H68.25V9.75H59.5V11.5H66.5V13.25H57.75ZM59.5 8H64.75V6.25H59.5V8ZM70 13.25V11.5H78.75V9.75H71.75V8H70V6.25H71.75V4.5H80.5V6.25H73.5V8H80.5V9.75H82.25V11.5H80.5V13.25H70ZM85.75 8V6.25H96.25V8H85.75ZM98 13.25V11.5H106.75V9.75H99.75V8H98V6.25H99.75V4.5H108.5V6.25H101.5V8H108.5V9.75H110.25V11.5H108.5V13.25H98ZM117.25 13.25V6.25H113.75V4.5H117.25V1H120.75V4.5H124.25V6.25H120.75V13.25H117.25ZM127.75 15V13.25H134.75V11.5H127.75V9.75H126V4.5H129.5V9.75H134.75V4.5H138.25V13.25H136.5V15H127.75ZM141.75 13.25V11.5H145.25V2.75H143.5V1H148.75V11.5H152.25V13.25H141.75ZM155.75 13.25V11.5H154V6.25H155.75V4.5H164.5V6.25H166.25V9.75H157.5V11.5H164.5V13.25H155.75ZM157.5 8H162.75V6.25H157.5V8ZM171.5 6.25V2.75H175V6.25H171.5ZM171.5 11.5V8H175V11.5H171.5ZM196 13.25V4.5H206.5V6.25H208.25V13.25H204.75V6.25H199.5V13.25H196ZM211.75 13.25V11.5H210V6.25H211.75V4.5H220.5V6.25H222.25V11.5H220.5V13.25H211.75ZM213.5 11.5H218.75V6.25H213.5V11.5ZM224 13.25V4.5H234.5V6.25H236.25V13.25H232.75V6.25H227.5V13.25H224ZM239.75 13.25V11.5H238V6.25H239.75V4.5H248.5V6.25H250.25V9.75H241.5V11.5H248.5V13.25H239.75ZM241.5 8H246.75V6.25H241.5V8ZM255.5 6.25V2.75H259V6.25H255.5ZM253.75 13.25V11.5H255.5V8H259V11.5H257.25V13.25H253.75ZM267.75 13.25V11.5H269.5V9.75H271.25V8H273V6.25H271.25V4.5H269.5V2.75H267.75V1H271.25V2.75H273V4.5H274.75V6.25H276.5V8H274.75V9.75H273V11.5H271.25V13.25H267.75Z" fill="black"/>
<path d="M7 13.25H6V14.25H7V13.25ZM7 11.5H8V10.5H7V11.5ZM5.25 11.5H4.25V12.5H5.25V11.5ZM5.25 9.75H6.25V8.75H5.25V9.75ZM3.5 9.75H2.5V10.75H3.5V9.75ZM3.5 8H4.5V7H3.5V8ZM1.75 8H0.75V9H1.75V8ZM1.75 6.25V5.25H0.75V6.25H1.75ZM3.5 6.25V7.25H4.5V6.25H3.5ZM3.5 4.5V3.5H2.5V4.5H3.5ZM5.25 4.5V5.5H6.25V4.5H5.25ZM5.25 2.75V1.75H4.25V2.75H5.25ZM7 2.75V3.75H8V2.75H7ZM7 1V0H6V1H7ZM10.5 1H11.5V0H10.5V1ZM10.5 2.75V3.75H11.5V2.75H10.5ZM8.75 2.75V1.75H7.75V2.75H8.75ZM8.75 4.5V5.5H9.75V4.5H8.75ZM7 4.5V3.5H6V4.5H7ZM7 6.25V7.25H8V6.25H7ZM5.25 6.25V5.25H4.25V6.25H5.25ZM5.25 8H4.25V9H5.25V8ZM7 8H8V7H7V8ZM7 9.75H6V10.75H7V9.75ZM8.75 9.75H9.75V8.75H8.75V9.75ZM8.75 11.5H7.75V12.5H8.75V11.5ZM10.5 11.5H11.5V10.5H10.5V11.5ZM10.5 13.25V14.25H11.5V13.25H10.5ZM8 13.25V11.5H6V13.25H8ZM7 10.5H5.25V12.5H7V10.5ZM6.25 11.5V9.75H4.25V11.5H6.25ZM5.25 8.75H3.5V10.75H5.25V8.75ZM4.5 9.75V8H2.5V9.75H4.5ZM3.5 7H1.75V9H3.5V7ZM2.75 8V6.25H0.75V8H2.75ZM1.75 7.25H3.5V5.25H1.75V7.25ZM4.5 6.25V4.5H2.5V6.25H4.5ZM3.5 5.5H5.25V3.5H3.5V5.5ZM6.25 4.5V2.75H4.25V4.5H6.25ZM5.25 3.75H7V1.75H5.25V3.75ZM8 2.75V1H6V2.75H8ZM7 2H10.5V0H7V2ZM9.5 1V2.75H11.5V1H9.5ZM10.5 1.75H8.75V3.75H10.5V1.75ZM7.75 2.75V4.5H9.75V2.75H7.75ZM8.75 3.5H7V5.5H8.75V3.5ZM6 4.5V6.25H8V4.5H6ZM7 5.25H5.25V7.25H7V5.25ZM4.25 6.25V8H6.25V6.25H4.25ZM5.25 9H7V7H5.25V9ZM6 8V9.75H8V8H6ZM7 10.75H8.75V8.75H7V10.75ZM7.75 9.75V11.5H9.75V9.75H7.75ZM8.75 12.5H10.5V10.5H8.75V12.5ZM9.5 11.5V13.25H11.5V11.5H9.5ZM10.5 12.25H7V14.25H10.5V12.25ZM15.75 13.25H14.75V14.25H15.75V13.25ZM15.75 11.5V10.5H14.75V11.5H15.75ZM19.25 11.5V12.5H20.25V11.5H19.25ZM19.25 2.75H20.25V1.75H19.25V2.75ZM17.5 2.75H16.5V3.75H17.5V2.75ZM17.5 1V0H16.5V1H17.5ZM22.75 1H23.75V0H22.75V1ZM22.75 11.5H21.75V12.5H22.75V11.5ZM26.25 11.5H27.25V10.5H26.25V11.5ZM26.25 13.25V14.25H27.25V13.25H26.25ZM16.75 13.25V11.5H14.75V13.25H16.75ZM15.75 12.5H19.25V10.5H15.75V12.5ZM20.25 11.5V2.75H18.25V11.5H20.25ZM19.25 1.75H17.5V3.75H19.25V1.75ZM18.5 2.75V1H16.5V2.75H18.5ZM17.5 2H22.75V0H17.5V2ZM21.75 1V11.5H23.75V1H21.75ZM22.75 12.5H26.25V10.5H22.75V12.5ZM25.25 11.5V13.25H27.25V11.5H25.25ZM26.25 12.25H15.75V14.25H26.25V12.25ZM33.25 2.75H32.25V3.75H33.25V2.75ZM33.25 1V0H32.25V1H33.25ZM36.75 1H37.75V0H36.75V1ZM36.75 2.75V3.75H37.75V2.75H36.75ZM29.75 13.25H28.75V14.25H29.75V13.25ZM29.75 11.5V10.5H28.75V11.5H29.75ZM33.25 11.5V12.5H34.25V11.5H33.25ZM33.25 6.25H34.25V5.25H33.25V6.25ZM31.5 6.25H30.5V7.25H31.5V6.25ZM31.5 4.5V3.5H30.5V4.5H31.5ZM36.75 4.5H37.75V3.5H36.75V4.5ZM36.75 11.5H35.75V12.5H36.75V11.5ZM40.25 11.5H41.25V10.5H40.25V11.5ZM40.25 13.25V14.25H41.25V13.25H40.25ZM34.25 2.75V1H32.25V2.75H34.25ZM33.25 2H36.75V0H33.25V2ZM35.75 1V2.75H37.75V1H35.75ZM36.75 1.75H33.25V3.75H36.75V1.75ZM30.75 13.25V11.5H28.75V13.25H30.75ZM29.75 12.5H33.25V10.5H29.75V12.5ZM34.25 11.5V6.25H32.25V11.5H34.25ZM33.25 5.25H31.5V7.25H33.25V5.25ZM32.5 6.25V4.5H30.5V6.25H32.5ZM31.5 5.5H36.75V3.5H31.5V5.5ZM35.75 4.5V11.5H37.75V4.5H35.75ZM36.75 12.5H40.25V10.5H36.75V12.5ZM39.25 11.5V13.25H41.25V11.5H39.25ZM40.25 12.25H29.75V14.25H40.25V12.25ZM47.25 13.25H46.25V14.25H47.25V13.25ZM47.25 6.25H48.25V5.25H47.25V6.25ZM43.75 6.25H42.75V7.25H43.75V6.25ZM43.75 4.5V3.5H42.75V4.5H43.75ZM47.25 4.5V5.5H48.25V4.5H47.25ZM47.25 2.75V1.75H46.25V2.75H47.25ZM49 2.75V3.75H50V2.75H49ZM49 1V0H48V1H49ZM54.25 1H55.25V0H54.25V1ZM54.25 2.75V3.75H55.25V2.75H54.25ZM50.75 2.75V1.75H49.75V2.75H50.75ZM50.75 4.5H49.75V5.5H50.75V4.5ZM54.25 4.5H55.25V3.5H54.25V4.5ZM54.25 6.25V7.25H55.25V6.25H54.25ZM50.75 6.25V5.25H49.75V6.25H50.75ZM50.75 13.25V14.25H51.75V13.25H50.75ZM48.25 13.25V6.25H46.25V13.25H48.25ZM47.25 5.25H43.75V7.25H47.25V5.25ZM44.75 6.25V4.5H42.75V6.25H44.75ZM43.75 5.5H47.25V3.5H43.75V5.5ZM48.25 4.5V2.75H46.25V4.5H48.25ZM47.25 3.75H49V1.75H47.25V3.75ZM50 2.75V1H48V2.75H50ZM49 2H54.25V0H49V2ZM53.25 1V2.75H55.25V1H53.25ZM54.25 1.75H50.75V3.75H54.25V1.75ZM49.75 2.75V4.5H51.75V2.75H49.75ZM50.75 5.5H54.25V3.5H50.75V5.5ZM53.25 4.5V6.25H55.25V4.5H53.25ZM54.25 5.25H50.75V7.25H54.25V5.25ZM49.75 6.25V13.25H51.75V6.25H49.75ZM50.75 12.25H47.25V14.25H50.75V12.25ZM57.75 13.25H56.75V14.25H57.75V13.25ZM57.75 11.5H58.75V10.5H57.75V11.5ZM56 11.5H55V12.5H56V11.5ZM56 6.25V5.25H55V6.25H56ZM57.75 6.25V7.25H58.75V6.25H57.75ZM57.75 4.5V3.5H56.75V4.5H57.75ZM66.5 4.5H67.5V3.5H66.5V4.5ZM66.5 6.25H65.5V7.25H66.5V6.25ZM68.25 6.25H69.25V5.25H68.25V6.25ZM68.25 9.75V10.75H69.25V9.75H68.25ZM59.5 9.75V8.75H58.5V9.75H59.5ZM59.5 11.5H58.5V12.5H59.5V11.5ZM66.5 11.5H67.5V10.5H66.5V11.5ZM66.5 13.25V14.25H67.5V13.25H66.5ZM59.5 8H58.5V9H59.5V8ZM64.75 8V9H65.75V8H64.75ZM64.75 6.25H65.75V5.25H64.75V6.25ZM59.5 6.25V5.25H58.5V6.25H59.5ZM58.75 13.25V11.5H56.75V13.25H58.75ZM57.75 10.5H56V12.5H57.75V10.5ZM57 11.5V6.25H55V11.5H57ZM56 7.25H57.75V5.25H56V7.25ZM58.75 6.25V4.5H56.75V6.25H58.75ZM57.75 5.5H66.5V3.5H57.75V5.5ZM65.5 4.5V6.25H67.5V4.5H65.5ZM66.5 7.25H68.25V5.25H66.5V7.25ZM67.25 6.25V9.75H69.25V6.25H67.25ZM68.25 8.75H59.5V10.75H68.25V8.75ZM58.5 9.75V11.5H60.5V9.75H58.5ZM59.5 12.5H66.5V10.5H59.5V12.5ZM65.5 11.5V13.25H67.5V11.5H65.5ZM66.5 12.25H57.75V14.25H66.5V12.25ZM59.5 9H64.75V7H59.5V9ZM65.75 8V6.25H63.75V8H65.75ZM64.75 5.25H59.5V7.25H64.75V5.25ZM58.5 6.25V8H60.5V6.25H58.5ZM70 13.25H69V14.25H70V13.25ZM70 11.5V10.5H69V11.5H70ZM78.75 11.5V12.5H79.75V11.5H78.75ZM78.75 9.75H79.75V8.75H78.75V9.75ZM71.75 9.75H70.75V10.75H71.75V9.75ZM71.75 8H72.75V7H71.75V8ZM70 8H69V9H70V8ZM70 6.25V5.25H69V6.25H70ZM71.75 6.25V7.25H72.75V6.25H71.75ZM71.75 4.5V3.5H70.75V4.5H71.75ZM80.5 4.5H81.5V3.5H80.5V4.5ZM80.5 6.25V7.25H81.5V6.25H80.5ZM73.5 6.25V5.25H72.5V6.25H73.5ZM73.5 8H72.5V9H73.5V8ZM80.5 8H81.5V7H80.5V8ZM80.5 9.75H79.5V10.75H80.5V9.75ZM82.25 9.75H83.25V8.75H82.25V9.75ZM82.25 11.5V12.5H83.25V11.5H82.25ZM80.5 11.5V10.5H79.5V11.5H80.5ZM80.5 13.25V14.25H81.5V13.25H80.5ZM71 13.25V11.5H69V13.25H71ZM70 12.5H78.75V10.5H70V12.5ZM79.75 11.5V9.75H77.75V11.5H79.75ZM78.75 8.75H71.75V10.75H78.75V8.75ZM72.75 9.75V8H70.75V9.75H72.75ZM71.75 7H70V9H71.75V7ZM71 8V6.25H69V8H71ZM70 7.25H71.75V5.25H70V7.25ZM72.75 6.25V4.5H70.75V6.25H72.75ZM71.75 5.5H80.5V3.5H71.75V5.5ZM79.5 4.5V6.25H81.5V4.5H79.5ZM80.5 5.25H73.5V7.25H80.5V5.25ZM72.5 6.25V8H74.5V6.25H72.5ZM73.5 9H80.5V7H73.5V9ZM79.5 8V9.75H81.5V8H79.5ZM80.5 10.75H82.25V8.75H80.5V10.75ZM81.25 9.75V11.5H83.25V9.75H81.25ZM82.25 10.5H80.5V12.5H82.25V10.5ZM79.5 11.5V13.25H81.5V11.5H79.5ZM80.5 12.25H70V14.25H80.5V12.25ZM85.75 8H84.75V9H85.75V8ZM85.75 6.25V5.25H84.75V6.25H85.75ZM96.25 6.25H97.25V5.25H96.25V6.25ZM96.25 8V9H97.25V8H96.25ZM86.75 8V6.25H84.75V8H86.75ZM85.75 7.25H96.25V5.25H85.75V7.25ZM95.25 6.25V8H97.25V6.25H95.25ZM96.25 7H85.75V9H96.25V7ZM98 13.25H97V14.25H98V13.25ZM98 11.5V10.5H97V11.5H98ZM106.75 11.5V12.5H107.75V11.5H106.75ZM106.75 9.75H107.75V8.75H106.75V9.75ZM99.75 9.75H98.75V10.75H99.75V9.75ZM99.75 8H100.75V7H99.75V8ZM98 8H97V9H98V8ZM98 6.25V5.25H97V6.25H98ZM99.75 6.25V7.25H100.75V6.25H99.75ZM99.75 4.5V3.5H98.75V4.5H99.75ZM108.5 4.5H109.5V3.5H108.5V4.5ZM108.5 6.25V7.25H109.5V6.25H108.5ZM101.5 6.25V5.25H100.5V6.25H101.5ZM101.5 8H100.5V9H101.5V8ZM108.5 8H109.5V7H108.5V8ZM108.5 9.75H107.5V10.75H108.5V9.75ZM110.25 9.75H111.25V8.75H110.25V9.75ZM110.25 11.5V12.5H111.25V11.5H110.25ZM108.5 11.5V10.5H107.5V11.5H108.5ZM108.5 13.25V14.25H109.5V13.25H108.5ZM99 13.25V11.5H97V13.25H99ZM98 12.5H106.75V10.5H98V12.5ZM107.75 11.5V9.75H105.75V11.5H107.75ZM106.75 8.75H99.75V10.75H106.75V8.75ZM100.75 9.75V8H98.75V9.75H100.75ZM99.75 7H98V9H99.75V7ZM99 8V6.25H97V8H99ZM98 7.25H99.75V5.25H98V7.25ZM100.75 6.25V4.5H98.75V6.25H100.75ZM99.75 5.5H108.5V3.5H99.75V5.5ZM107.5 4.5V6.25H109.5V4.5H107.5ZM108.5 5.25H101.5V7.25H108.5V5.25ZM100.5 6.25V8H102.5V6.25H100.5ZM101.5 9H108.5V7H101.5V9ZM107.5 8V9.75H109.5V8H107.5ZM108.5 10.75H110.25V8.75H108.5V10.75ZM109.25 9.75V11.5H111.25V9.75H109.25ZM110.25 10.5H108.5V12.5H110.25V10.5ZM107.5 11.5V13.25H109.5V11.5H107.5ZM108.5 12.25H98V14.25H108.5V12.25ZM117.25 13.25H116.25V14.25H117.25V13.25ZM117.25 6.25H118.25V5.25H117.25V6.25ZM113.75 6.25H112.75V7.25H113.75V6.25ZM113.75 4.5V3.5H112.75V4.5H113.75ZM117.25 4.5V5.5H118.25V4.5H117.25ZM117.25 1V0H116.25V1H117.25ZM120.75 1H121.75V0H120.75V1ZM120.75 4.5H119.75V5.5H120.75V4.5ZM124.25 4.5H125.25V3.5H124.25V4.5ZM124.25 6.25V7.25H125.25V6.25H124.25ZM120.75 6.25V5.25H119.75V6.25H120.75ZM120.75 13.25V14.25H121.75V13.25H120.75ZM118.25 13.25V6.25H116.25V13.25H118.25ZM117.25 5.25H113.75V7.25H117.25V5.25ZM114.75 6.25V4.5H112.75V6.25H114.75ZM113.75 5.5H117.25V3.5H113.75V5.5ZM118.25 4.5V1H116.25V4.5H118.25ZM117.25 2H120.75V0H117.25V2ZM119.75 1V4.5H121.75V1H119.75ZM120.75 5.5H124.25V3.5H120.75V5.5ZM123.25 4.5V6.25H125.25V4.5H123.25ZM124.25 5.25H120.75V7.25H124.25V5.25ZM119.75 6.25V13.25H121.75V6.25H119.75ZM120.75 12.25H117.25V14.25H120.75V12.25ZM127.75 15H126.75V16H127.75V15ZM127.75 13.25V12.25H126.75V13.25H127.75ZM134.75 13.25V14.25H135.75V13.25H134.75ZM134.75 11.5H135.75V10.5H134.75V11.5ZM127.75 11.5H126.75V12.5H127.75V11.5ZM127.75 9.75H128.75V8.75H127.75V9.75ZM126 9.75H125V10.75H126V9.75ZM126 4.5V3.5H125V4.5H126ZM129.5 4.5H130.5V3.5H129.5V4.5ZM129.5 9.75H128.5V10.75H129.5V9.75ZM134.75 9.75V10.75H135.75V9.75H134.75ZM134.75 4.5V3.5H133.75V4.5H134.75ZM138.25 4.5H139.25V3.5H138.25V4.5ZM138.25 13.25V14.25H139.25V13.25H138.25ZM136.5 13.25V12.25H135.5V13.25H136.5ZM136.5 15V16H137.5V15H136.5ZM128.75 15V13.25H126.75V15H128.75ZM127.75 14.25H134.75V12.25H127.75V14.25ZM135.75 13.25V11.5H133.75V13.25H135.75ZM134.75 10.5H127.75V12.5H134.75V10.5ZM128.75 11.5V9.75H126.75V11.5H128.75ZM127.75 8.75H126V10.75H127.75V8.75ZM127 9.75V4.5H125V9.75H127ZM126 5.5H129.5V3.5H126V5.5ZM128.5 4.5V9.75H130.5V4.5H128.5ZM129.5 10.75H134.75V8.75H129.5V10.75ZM135.75 9.75V4.5H133.75V9.75H135.75ZM134.75 5.5H138.25V3.5H134.75V5.5ZM137.25 4.5V13.25H139.25V4.5H137.25ZM138.25 12.25H136.5V14.25H138.25V12.25ZM135.5 13.25V15H137.5V13.25H135.5ZM136.5 14H127.75V16H136.5V14ZM141.75 13.25H140.75V14.25H141.75V13.25ZM141.75 11.5V10.5H140.75V11.5H141.75ZM145.25 11.5V12.5H146.25V11.5H145.25ZM145.25 2.75H146.25V1.75H145.25V2.75ZM143.5 2.75H142.5V3.75H143.5V2.75ZM143.5 1V0H142.5V1H143.5ZM148.75 1H149.75V0H148.75V1ZM148.75 11.5H147.75V12.5H148.75V11.5ZM152.25 11.5H153.25V10.5H152.25V11.5ZM152.25 13.25V14.25H153.25V13.25H152.25ZM142.75 13.25V11.5H140.75V13.25H142.75ZM141.75 12.5H145.25V10.5H141.75V12.5ZM146.25 11.5V2.75H144.25V11.5H146.25ZM145.25 1.75H143.5V3.75H145.25V1.75ZM144.5 2.75V1H142.5V2.75H144.5ZM143.5 2H148.75V0H143.5V2ZM147.75 1V11.5H149.75V1H147.75ZM148.75 12.5H152.25V10.5H148.75V12.5ZM151.25 11.5V13.25H153.25V11.5H151.25ZM152.25 12.25H141.75V14.25H152.25V12.25ZM155.75 13.25H154.75V14.25H155.75V13.25ZM155.75 11.5H156.75V10.5H155.75V11.5ZM154 11.5H153V12.5H154V11.5ZM154 6.25V5.25H153V6.25H154ZM155.75 6.25V7.25H156.75V6.25H155.75ZM155.75 4.5V3.5H154.75V4.5H155.75ZM164.5 4.5H165.5V3.5H164.5V4.5ZM164.5 6.25H163.5V7.25H164.5V6.25ZM166.25 6.25H167.25V5.25H166.25V6.25ZM166.25 9.75V10.75H167.25V9.75H166.25ZM157.5 9.75V8.75H156.5V9.75H157.5ZM157.5 11.5H156.5V12.5H157.5V11.5ZM164.5 11.5H165.5V10.5H164.5V11.5ZM164.5 13.25V14.25H165.5V13.25H164.5ZM157.5 8H156.5V9H157.5V8ZM162.75 8V9H163.75V8H162.75ZM162.75 6.25H163.75V5.25H162.75V6.25ZM157.5 6.25V5.25H156.5V6.25H157.5ZM156.75 13.25V11.5H154.75V13.25H156.75ZM155.75 10.5H154V12.5H155.75V10.5ZM155 11.5V6.25H153V11.5H155ZM154 7.25H155.75V5.25H154V7.25ZM156.75 6.25V4.5H154.75V6.25H156.75ZM155.75 5.5H164.5V3.5H155.75V5.5ZM163.5 4.5V6.25H165.5V4.5H163.5ZM164.5 7.25H166.25V5.25H164.5V7.25ZM165.25 6.25V9.75H167.25V6.25H165.25ZM166.25 8.75H157.5V10.75H166.25V8.75ZM156.5 9.75V11.5H158.5V9.75H156.5ZM157.5 12.5H164.5V10.5H157.5V12.5ZM163.5 11.5V13.25H165.5V11.5H163.5ZM164.5 12.25H155.75V14.25H164.5V12.25ZM157.5 9H162.75V7H157.5V9ZM163.75 8V6.25H161.75V8H163.75ZM162.75 5.25H157.5V7.25H162.75V5.25ZM156.5 6.25V8H158.5V6.25H156.5ZM171.5 6.25H170.5V7.25H171.5V6.25ZM171.5 2.75V1.75H170.5V2.75H171.5ZM175 2.75H176V1.75H175V2.75ZM175 6.25V7.25H176V6.25H175ZM171.5 11.5H170.5V12.5H171.5V11.5ZM171.5 8V7H170.5V8H171.5ZM175 8H176V7H175V8ZM175 11.5V12.5H176V11.5H175ZM172.5 6.25V2.75H170.5V6.25H172.5ZM171.5 3.75H175V1.75H171.5V3.75ZM174 2.75V6.25H176V2.75H174ZM175 5.25H171.5V7.25H175V5.25ZM172.5 11.5V8H170.5V11.5H172.5ZM171.5 9H175V7H171.5V9ZM174 8V11.5H176V8H174ZM175 10.5H171.5V12.5H175V10.5ZM196 13.25H195V14.25H196V13.25ZM196 4.5V3.5H195V4.5H196ZM206.5 4.5H207.5V3.5H206.5V4.5ZM206.5 6.25H205.5V7.25H206.5V6.25ZM208.25 6.25H209.25V5.25H208.25V6.25ZM208.25 13.25V14.25H209.25V13.25H208.25ZM204.75 13.25H203.75V14.25H204.75V13.25ZM204.75 6.25H205.75V5.25H204.75V6.25ZM199.5 6.25V5.25H198.5V6.25H199.5ZM199.5 13.25V14.25H200.5V13.25H199.5ZM197 13.25V4.5H195V13.25H197ZM196 5.5H206.5V3.5H196V5.5ZM205.5 4.5V6.25H207.5V4.5H205.5ZM206.5 7.25H208.25V5.25H206.5V7.25ZM207.25 6.25V13.25H209.25V6.25H207.25ZM208.25 12.25H204.75V14.25H208.25V12.25ZM205.75 13.25V6.25H203.75V13.25H205.75ZM204.75 5.25H199.5V7.25H204.75V5.25ZM198.5 6.25V13.25H200.5V6.25H198.5ZM199.5 12.25H196V14.25H199.5V12.25ZM211.75 13.25H210.75V14.25H211.75V13.25ZM211.75 11.5H212.75V10.5H211.75V11.5ZM210 11.5H209V12.5H210V11.5ZM210 6.25V5.25H209V6.25H210ZM211.75 6.25V7.25H212.75V6.25H211.75ZM211.75 4.5V3.5H210.75V4.5H211.75ZM220.5 4.5H221.5V3.5H220.5V4.5ZM220.5 6.25H219.5V7.25H220.5V6.25ZM222.25 6.25H223.25V5.25H222.25V6.25ZM222.25 11.5V12.5H223.25V11.5H222.25ZM220.5 11.5V10.5H219.5V11.5H220.5ZM220.5 13.25V14.25H221.5V13.25H220.5ZM213.5 11.5H212.5V12.5H213.5V11.5ZM218.75 11.5V12.5H219.75V11.5H218.75ZM218.75 6.25H219.75V5.25H218.75V6.25ZM213.5 6.25V5.25H212.5V6.25H213.5ZM212.75 13.25V11.5H210.75V13.25H212.75ZM211.75 10.5H210V12.5H211.75V10.5ZM211 11.5V6.25H209V11.5H211ZM210 7.25H211.75V5.25H210V7.25ZM212.75 6.25V4.5H210.75V6.25H212.75ZM211.75 5.5H220.5V3.5H211.75V5.5ZM219.5 4.5V6.25H221.5V4.5H219.5ZM220.5 7.25H222.25V5.25H220.5V7.25ZM221.25 6.25V11.5H223.25V6.25H221.25ZM222.25 10.5H220.5V12.5H222.25V10.5ZM219.5 11.5V13.25H221.5V11.5H219.5ZM220.5 12.25H211.75V14.25H220.5V12.25ZM213.5 12.5H218.75V10.5H213.5V12.5ZM219.75 11.5V6.25H217.75V11.5H219.75ZM218.75 5.25H213.5V7.25H218.75V5.25ZM212.5 6.25V11.5H214.5V6.25H212.5ZM224 13.25H223V14.25H224V13.25ZM224 4.5V3.5H223V4.5H224ZM234.5 4.5H235.5V3.5H234.5V4.5ZM234.5 6.25H233.5V7.25H234.5V6.25ZM236.25 6.25H237.25V5.25H236.25V6.25ZM236.25 13.25V14.25H237.25V13.25H236.25ZM232.75 13.25H231.75V14.25H232.75V13.25ZM232.75 6.25H233.75V5.25H232.75V6.25ZM227.5 6.25V5.25H226.5V6.25H227.5ZM227.5 13.25V14.25H228.5V13.25H227.5ZM225 13.25V4.5H223V13.25H225ZM224 5.5H234.5V3.5H224V5.5ZM233.5 4.5V6.25H235.5V4.5H233.5ZM234.5 7.25H236.25V5.25H234.5V7.25ZM235.25 6.25V13.25H237.25V6.25H235.25ZM236.25 12.25H232.75V14.25H236.25V12.25ZM233.75 13.25V6.25H231.75V13.25H233.75ZM232.75 5.25H227.5V7.25H232.75V5.25ZM226.5 6.25V13.25H228.5V6.25H226.5ZM227.5 12.25H224V14.25H227.5V12.25ZM239.75 13.25H238.75V14.25H239.75V13.25ZM239.75 11.5H240.75V10.5H239.75V11.5ZM238 11.5H237V12.5H238V11.5ZM238 6.25V5.25H237V6.25H238ZM239.75 6.25V7.25H240.75V6.25H239.75ZM239.75 4.5V3.5H238.75V4.5H239.75ZM248.5 4.5H249.5V3.5H248.5V4.5ZM248.5 6.25H247.5V7.25H248.5V6.25ZM250.25 6.25H251.25V5.25H250.25V6.25ZM250.25 9.75V10.75H251.25V9.75H250.25ZM241.5 9.75V8.75H240.5V9.75H241.5ZM241.5 11.5H240.5V12.5H241.5V11.5ZM248.5 11.5H249.5V10.5H248.5V11.5ZM248.5 13.25V14.25H249.5V13.25H248.5ZM241.5 8H240.5V9H241.5V8ZM246.75 8V9H247.75V8H246.75ZM246.75 6.25H247.75V5.25H246.75V6.25ZM241.5 6.25V5.25H240.5V6.25H241.5ZM240.75 13.25V11.5H238.75V13.25H240.75ZM239.75 10.5H238V12.5H239.75V10.5ZM239 11.5V6.25H237V11.5H239ZM238 7.25H239.75V5.25H238V7.25ZM240.75 6.25V4.5H238.75V6.25H240.75ZM239.75 5.5H248.5V3.5H239.75V5.5ZM247.5 4.5V6.25H249.5V4.5H247.5ZM248.5 7.25H250.25V5.25H248.5V7.25ZM249.25 6.25V9.75H251.25V6.25H249.25ZM250.25 8.75H241.5V10.75H250.25V8.75ZM240.5 9.75V11.5H242.5V9.75H240.5ZM241.5 12.5H248.5V10.5H241.5V12.5ZM247.5 11.5V13.25H249.5V11.5H247.5ZM248.5 12.25H239.75V14.25H248.5V12.25ZM241.5 9H246.75V7H241.5V9ZM247.75 8V6.25H245.75V8H247.75ZM246.75 5.25H241.5V7.25H246.75V5.25ZM240.5 6.25V8H242.5V6.25H240.5ZM255.5 6.25H254.5V7.25H255.5V6.25ZM255.5 2.75V1.75H254.5V2.75H255.5ZM259 2.75H260V1.75H259V2.75ZM259 6.25V7.25H260V6.25H259ZM253.75 13.25H252.75V14.25H253.75V13.25ZM253.75 11.5V10.5H252.75V11.5H253.75ZM255.5 11.5V12.5H256.5V11.5H255.5ZM255.5 8V7H254.5V8H255.5ZM259 8H260V7H259V8ZM259 11.5V12.5H260V11.5H259ZM257.25 11.5V10.5H256.25V11.5H257.25ZM257.25 13.25V14.25H258.25V13.25H257.25ZM256.5 6.25V2.75H254.5V6.25H256.5ZM255.5 3.75H259V1.75H255.5V3.75ZM258 2.75V6.25H260V2.75H258ZM259 5.25H255.5V7.25H259V5.25ZM254.75 13.25V11.5H252.75V13.25H254.75ZM253.75 12.5H255.5V10.5H253.75V12.5ZM256.5 11.5V8H254.5V11.5H256.5ZM255.5 9H259V7H255.5V9ZM258 8V11.5H260V8H258ZM259 10.5H257.25V12.5H259V10.5ZM256.25 11.5V13.25H258.25V11.5H256.25ZM257.25 12.25H253.75V14.25H257.25V12.25ZM267.75 13.25H266.75V14.25H267.75V13.25ZM267.75 11.5V10.5H266.75V11.5H267.75ZM269.5 11.5V12.5H270.5V11.5H269.5ZM269.5 9.75V8.75H268.5V9.75H269.5ZM271.25 9.75V10.75H272.25V9.75H271.25ZM271.25 8V7H270.25V8H271.25ZM273 8V9H274V8H273ZM273 6.25H274V5.25H273V6.25ZM271.25 6.25H270.25V7.25H271.25V6.25ZM271.25 4.5H272.25V3.5H271.25V4.5ZM269.5 4.5H268.5V5.5H269.5V4.5ZM269.5 2.75H270.5V1.75H269.5V2.75ZM267.75 2.75H266.75V3.75H267.75V2.75ZM267.75 1V0H266.75V1H267.75ZM271.25 1H272.25V0H271.25V1ZM271.25 2.75H270.25V3.75H271.25V2.75ZM273 2.75H274V1.75H273V2.75ZM273 4.5H272V5.5H273V4.5ZM274.75 4.5H275.75V3.5H274.75V4.5ZM274.75 6.25H273.75V7.25H274.75V6.25ZM276.5 6.25H277.5V5.25H276.5V6.25ZM276.5 8V9H277.5V8H276.5ZM274.75 8V7H273.75V8H274.75ZM274.75 9.75V10.75H275.75V9.75H274.75ZM273 9.75V8.75H272V9.75H273ZM273 11.5V12.5H274V11.5H273ZM271.25 11.5V10.5H270.25V11.5H271.25ZM271.25 13.25V14.25H272.25V13.25H271.25ZM268.75 13.25V11.5H266.75V13.25H268.75ZM267.75 12.5H269.5V10.5H267.75V12.5ZM270.5 11.5V9.75H268.5V11.5H270.5ZM269.5 10.75H271.25V8.75H269.5V10.75ZM272.25 9.75V8H270.25V9.75H272.25ZM271.25 9H273V7H271.25V9ZM274 8V6.25H272V8H274ZM273 5.25H271.25V7.25H273V5.25ZM272.25 6.25V4.5H270.25V6.25H272.25ZM271.25 3.5H269.5V5.5H271.25V3.5ZM270.5 4.5V2.75H268.5V4.5H270.5ZM269.5 1.75H267.75V3.75H269.5V1.75ZM268.75 2.75V1H266.75V2.75H268.75ZM267.75 2H271.25V0H267.75V2ZM270.25 1V2.75H272.25V1H270.25ZM271.25 3.75H273V1.75H271.25V3.75ZM272 2.75V4.5H274V2.75H272ZM273 5.5H274.75V3.5H273V5.5ZM273.75 4.5V6.25H275.75V4.5H273.75ZM274.75 7.25H276.5V5.25H274.75V7.25ZM275.5 6.25V8H277.5V6.25H275.5ZM276.5 7H274.75V9H276.5V7ZM273.75 8V9.75H275.75V8H273.75ZM274.75 8.75H273V10.75H274.75V8.75ZM272 9.75V11.5H274V9.75H272ZM273 10.5H271.25V12.5H273V10.5ZM270.25 11.5V13.25H272.25V11.5H270.25ZM271.25 12.25H267.75V14.25H271.25V12.25Z" fill="white" mask="url(#path-1-outside-1_0_1198)"/>
</g>
</svg>
