<svg width="124" height="16" viewBox="0 0 124 16" fill="none" xmlns="http://www.w3.org/2000/svg">
<g style="mix-blend-mode:hard-light" opacity="0.5">
<mask id="path-1-outside-1_0_1161" maskUnits="userSpaceOnUse" x="0" y="0" width="124" height="16" fill="black">
<rect fill="white" width="124" height="16"/>
<path d="M7 13.25V11.5H5.25V9.75H3.5V8H1.75V6.25H3.5V4.5H5.25V2.75H7V1H10.5V2.75H8.75V4.5H7V6.25H5.25V8H7V9.75H8.75V11.5H10.5V13.25H7ZM14 13.25V11.5H22.75V9.75H15.75V8H14V6.25H15.75V4.5H24.5V6.25H17.5V8H24.5V9.75H26.25V11.5H24.5V13.25H14ZM29.75 13.25V11.5H28V4.5H31.5V11.5H36.75V4.5H40.25V13.25H29.75ZM42 15V4.5H52.5V6.25H54.25V9.75H52.5V11.5H45.5V15H42ZM45.5 9.75H50.75V6.25H45.5V9.75ZM56 15V4.5H66.5V6.25H68.25V9.75H66.5V11.5H59.5V15H56ZM59.5 9.75H64.75V6.25H59.5V9.75ZM71.75 13.25V11.5H70V6.25H71.75V4.5H80.5V6.25H82.25V11.5H80.5V13.25H71.75ZM73.5 11.5H78.75V6.25H73.5V11.5ZM89.25 6.25H91V8H89.25V13.25H85.75V4.5H89.25V6.25ZM96.25 4.5V6.25H91V4.5H96.25ZM103.25 13.25V6.25H99.75V4.5H103.25V1H106.75V4.5H110.25V6.25H106.75V13.25H103.25ZM113.75 13.25V11.5H115.5V9.75H117.25V8H119V6.25H117.25V4.5H115.5V2.75H113.75V1H117.25V2.75H119V4.5H120.75V6.25H122.5V8H120.75V9.75H119V11.5H117.25V13.25H113.75Z"/>
</mask>
<path d="M7 13.25V11.5H5.25V9.75H3.5V8H1.75V6.25H3.5V4.5H5.25V2.75H7V1H10.5V2.75H8.75V4.5H7V6.25H5.25V8H7V9.75H8.75V11.5H10.5V13.25H7ZM14 13.25V11.5H22.75V9.75H15.75V8H14V6.25H15.75V4.5H24.5V6.25H17.5V8H24.5V9.75H26.25V11.5H24.5V13.25H14ZM29.75 13.25V11.5H28V4.5H31.5V11.5H36.75V4.5H40.25V13.25H29.75ZM42 15V4.5H52.5V6.25H54.25V9.75H52.5V11.5H45.5V15H42ZM45.5 9.75H50.75V6.25H45.5V9.75ZM56 15V4.5H66.5V6.25H68.25V9.75H66.5V11.5H59.5V15H56ZM59.5 9.75H64.75V6.25H59.5V9.75ZM71.75 13.25V11.5H70V6.25H71.75V4.5H80.5V6.25H82.25V11.5H80.5V13.25H71.75ZM73.5 11.5H78.75V6.25H73.5V11.5ZM89.25 6.25H91V8H89.25V13.25H85.75V4.5H89.25V6.25ZM96.25 4.5V6.25H91V4.5H96.25ZM103.25 13.25V6.25H99.75V4.5H103.25V1H106.75V4.5H110.25V6.25H106.75V13.25H103.25ZM113.75 13.25V11.5H115.5V9.75H117.25V8H119V6.25H117.25V4.5H115.5V2.75H113.75V1H117.25V2.75H119V4.5H120.75V6.25H122.5V8H120.75V9.75H119V11.5H117.25V13.25H113.75Z" fill="black"/>
<path d="M7 13.25H6V14.25H7V13.25ZM7 11.5H8V10.5H7V11.5ZM5.25 11.5H4.25V12.5H5.25V11.5ZM5.25 9.75H6.25V8.75H5.25V9.75ZM3.5 9.75H2.5V10.75H3.5V9.75ZM3.5 8H4.5V7H3.5V8ZM1.75 8H0.75V9H1.75V8ZM1.75 6.25V5.25H0.75V6.25H1.75ZM3.5 6.25V7.25H4.5V6.25H3.5ZM3.5 4.5V3.5H2.5V4.5H3.5ZM5.25 4.5V5.5H6.25V4.5H5.25ZM5.25 2.75V1.75H4.25V2.75H5.25ZM7 2.75V3.75H8V2.75H7ZM7 1V0H6V1H7ZM10.5 1H11.5V0H10.5V1ZM10.5 2.75V3.75H11.5V2.75H10.5ZM8.75 2.75V1.75H7.75V2.75H8.75ZM8.75 4.5V5.5H9.75V4.5H8.75ZM7 4.5V3.5H6V4.5H7ZM7 6.25V7.25H8V6.25H7ZM5.25 6.25V5.25H4.25V6.25H5.25ZM5.25 8H4.25V9H5.25V8ZM7 8H8V7H7V8ZM7 9.75H6V10.75H7V9.75ZM8.75 9.75H9.75V8.75H8.75V9.75ZM8.75 11.5H7.75V12.5H8.75V11.5ZM10.5 11.5H11.5V10.5H10.5V11.5ZM10.5 13.25V14.25H11.5V13.25H10.5ZM8 13.25V11.5H6V13.25H8ZM7 10.5H5.25V12.5H7V10.5ZM6.25 11.5V9.75H4.25V11.5H6.25ZM5.25 8.75H3.5V10.75H5.25V8.75ZM4.5 9.75V8H2.5V9.75H4.5ZM3.5 7H1.75V9H3.5V7ZM2.75 8V6.25H0.75V8H2.75ZM1.75 7.25H3.5V5.25H1.75V7.25ZM4.5 6.25V4.5H2.5V6.25H4.5ZM3.5 5.5H5.25V3.5H3.5V5.5ZM6.25 4.5V2.75H4.25V4.5H6.25ZM5.25 3.75H7V1.75H5.25V3.75ZM8 2.75V1H6V2.75H8ZM7 2H10.5V0H7V2ZM9.5 1V2.75H11.5V1H9.5ZM10.5 1.75H8.75V3.75H10.5V1.75ZM7.75 2.75V4.5H9.75V2.75H7.75ZM8.75 3.5H7V5.5H8.75V3.5ZM6 4.5V6.25H8V4.5H6ZM7 5.25H5.25V7.25H7V5.25ZM4.25 6.25V8H6.25V6.25H4.25ZM5.25 9H7V7H5.25V9ZM6 8V9.75H8V8H6ZM7 10.75H8.75V8.75H7V10.75ZM7.75 9.75V11.5H9.75V9.75H7.75ZM8.75 12.5H10.5V10.5H8.75V12.5ZM9.5 11.5V13.25H11.5V11.5H9.5ZM10.5 12.25H7V14.25H10.5V12.25ZM14 13.25H13V14.25H14V13.25ZM14 11.5V10.5H13V11.5H14ZM22.75 11.5V12.5H23.75V11.5H22.75ZM22.75 9.75H23.75V8.75H22.75V9.75ZM15.75 9.75H14.75V10.75H15.75V9.75ZM15.75 8H16.75V7H15.75V8ZM14 8H13V9H14V8ZM14 6.25V5.25H13V6.25H14ZM15.75 6.25V7.25H16.75V6.25H15.75ZM15.75 4.5V3.5H14.75V4.5H15.75ZM24.5 4.5H25.5V3.5H24.5V4.5ZM24.5 6.25V7.25H25.5V6.25H24.5ZM17.5 6.25V5.25H16.5V6.25H17.5ZM17.5 8H16.5V9H17.5V8ZM24.5 8H25.5V7H24.5V8ZM24.5 9.75H23.5V10.75H24.5V9.75ZM26.25 9.75H27.25V8.75H26.25V9.75ZM26.25 11.5V12.5H27.25V11.5H26.25ZM24.5 11.5V10.5H23.5V11.5H24.5ZM24.5 13.25V14.25H25.5V13.25H24.5ZM15 13.25V11.5H13V13.25H15ZM14 12.5H22.75V10.5H14V12.5ZM23.75 11.5V9.75H21.75V11.5H23.75ZM22.75 8.75H15.75V10.75H22.75V8.75ZM16.75 9.75V8H14.75V9.75H16.75ZM15.75 7H14V9H15.75V7ZM15 8V6.25H13V8H15ZM14 7.25H15.75V5.25H14V7.25ZM16.75 6.25V4.5H14.75V6.25H16.75ZM15.75 5.5H24.5V3.5H15.75V5.5ZM23.5 4.5V6.25H25.5V4.5H23.5ZM24.5 5.25H17.5V7.25H24.5V5.25ZM16.5 6.25V8H18.5V6.25H16.5ZM17.5 9H24.5V7H17.5V9ZM23.5 8V9.75H25.5V8H23.5ZM24.5 10.75H26.25V8.75H24.5V10.75ZM25.25 9.75V11.5H27.25V9.75H25.25ZM26.25 10.5H24.5V12.5H26.25V10.5ZM23.5 11.5V13.25H25.5V11.5H23.5ZM24.5 12.25H14V14.25H24.5V12.25ZM29.75 13.25H28.75V14.25H29.75V13.25ZM29.75 11.5H30.75V10.5H29.75V11.5ZM28 11.5H27V12.5H28V11.5ZM28 4.5V3.5H27V4.5H28ZM31.5 4.5H32.5V3.5H31.5V4.5ZM31.5 11.5H30.5V12.5H31.5V11.5ZM36.75 11.5V12.5H37.75V11.5H36.75ZM36.75 4.5V3.5H35.75V4.5H36.75ZM40.25 4.5H41.25V3.5H40.25V4.5ZM40.25 13.25V14.25H41.25V13.25H40.25ZM30.75 13.25V11.5H28.75V13.25H30.75ZM29.75 10.5H28V12.5H29.75V10.5ZM29 11.5V4.5H27V11.5H29ZM28 5.5H31.5V3.5H28V5.5ZM30.5 4.5V11.5H32.5V4.5H30.5ZM31.5 12.5H36.75V10.5H31.5V12.5ZM37.75 11.5V4.5H35.75V11.5H37.75ZM36.75 5.5H40.25V3.5H36.75V5.5ZM39.25 4.5V13.25H41.25V4.5H39.25ZM40.25 12.25H29.75V14.25H40.25V12.25ZM42 15H41V16H42V15ZM42 4.5V3.5H41V4.5H42ZM52.5 4.5H53.5V3.5H52.5V4.5ZM52.5 6.25H51.5V7.25H52.5V6.25ZM54.25 6.25H55.25V5.25H54.25V6.25ZM54.25 9.75V10.75H55.25V9.75H54.25ZM52.5 9.75V8.75H51.5V9.75H52.5ZM52.5 11.5V12.5H53.5V11.5H52.5ZM45.5 11.5V10.5H44.5V11.5H45.5ZM45.5 15V16H46.5V15H45.5ZM45.5 9.75H44.5V10.75H45.5V9.75ZM50.75 9.75V10.75H51.75V9.75H50.75ZM50.75 6.25H51.75V5.25H50.75V6.25ZM45.5 6.25V5.25H44.5V6.25H45.5ZM43 15V4.5H41V15H43ZM42 5.5H52.5V3.5H42V5.5ZM51.5 4.5V6.25H53.5V4.5H51.5ZM52.5 7.25H54.25V5.25H52.5V7.25ZM53.25 6.25V9.75H55.25V6.25H53.25ZM54.25 8.75H52.5V10.75H54.25V8.75ZM51.5 9.75V11.5H53.5V9.75H51.5ZM52.5 10.5H45.5V12.5H52.5V10.5ZM44.5 11.5V15H46.5V11.5H44.5ZM45.5 14H42V16H45.5V14ZM45.5 10.75H50.75V8.75H45.5V10.75ZM51.75 9.75V6.25H49.75V9.75H51.75ZM50.75 5.25H45.5V7.25H50.75V5.25ZM44.5 6.25V9.75H46.5V6.25H44.5ZM56 15H55V16H56V15ZM56 4.5V3.5H55V4.5H56ZM66.5 4.5H67.5V3.5H66.5V4.5ZM66.5 6.25H65.5V7.25H66.5V6.25ZM68.25 6.25H69.25V5.25H68.25V6.25ZM68.25 9.75V10.75H69.25V9.75H68.25ZM66.5 9.75V8.75H65.5V9.75H66.5ZM66.5 11.5V12.5H67.5V11.5H66.5ZM59.5 11.5V10.5H58.5V11.5H59.5ZM59.5 15V16H60.5V15H59.5ZM59.5 9.75H58.5V10.75H59.5V9.75ZM64.75 9.75V10.75H65.75V9.75H64.75ZM64.75 6.25H65.75V5.25H64.75V6.25ZM59.5 6.25V5.25H58.5V6.25H59.5ZM57 15V4.5H55V15H57ZM56 5.5H66.5V3.5H56V5.5ZM65.5 4.5V6.25H67.5V4.5H65.5ZM66.5 7.25H68.25V5.25H66.5V7.25ZM67.25 6.25V9.75H69.25V6.25H67.25ZM68.25 8.75H66.5V10.75H68.25V8.75ZM65.5 9.75V11.5H67.5V9.75H65.5ZM66.5 10.5H59.5V12.5H66.5V10.5ZM58.5 11.5V15H60.5V11.5H58.5ZM59.5 14H56V16H59.5V14ZM59.5 10.75H64.75V8.75H59.5V10.75ZM65.75 9.75V6.25H63.75V9.75H65.75ZM64.75 5.25H59.5V7.25H64.75V5.25ZM58.5 6.25V9.75H60.5V6.25H58.5ZM71.75 13.25H70.75V14.25H71.75V13.25ZM71.75 11.5H72.75V10.5H71.75V11.5ZM70 11.5H69V12.5H70V11.5ZM70 6.25V5.25H69V6.25H70ZM71.75 6.25V7.25H72.75V6.25H71.75ZM71.75 4.5V3.5H70.75V4.5H71.75ZM80.5 4.5H81.5V3.5H80.5V4.5ZM80.5 6.25H79.5V7.25H80.5V6.25ZM82.25 6.25H83.25V5.25H82.25V6.25ZM82.25 11.5V12.5H83.25V11.5H82.25ZM80.5 11.5V10.5H79.5V11.5H80.5ZM80.5 13.25V14.25H81.5V13.25H80.5ZM73.5 11.5H72.5V12.5H73.5V11.5ZM78.75 11.5V12.5H79.75V11.5H78.75ZM78.75 6.25H79.75V5.25H78.75V6.25ZM73.5 6.25V5.25H72.5V6.25H73.5ZM72.75 13.25V11.5H70.75V13.25H72.75ZM71.75 10.5H70V12.5H71.75V10.5ZM71 11.5V6.25H69V11.5H71ZM70 7.25H71.75V5.25H70V7.25ZM72.75 6.25V4.5H70.75V6.25H72.75ZM71.75 5.5H80.5V3.5H71.75V5.5ZM79.5 4.5V6.25H81.5V4.5H79.5ZM80.5 7.25H82.25V5.25H80.5V7.25ZM81.25 6.25V11.5H83.25V6.25H81.25ZM82.25 10.5H80.5V12.5H82.25V10.5ZM79.5 11.5V13.25H81.5V11.5H79.5ZM80.5 12.25H71.75V14.25H80.5V12.25ZM73.5 12.5H78.75V10.5H73.5V12.5ZM79.75 11.5V6.25H77.75V11.5H79.75ZM78.75 5.25H73.5V7.25H78.75V5.25ZM72.5 6.25V11.5H74.5V6.25H72.5ZM89.25 6.25H88.25V7.25H89.25V6.25ZM91 6.25H92V5.25H91V6.25ZM91 8V9H92V8H91ZM89.25 8V7H88.25V8H89.25ZM89.25 13.25V14.25H90.25V13.25H89.25ZM85.75 13.25H84.75V14.25H85.75V13.25ZM85.75 4.5V3.5H84.75V4.5H85.75ZM89.25 4.5H90.25V3.5H89.25V4.5ZM96.25 4.5H97.25V3.5H96.25V4.5ZM96.25 6.25V7.25H97.25V6.25H96.25ZM91 6.25H90V7.25H91V6.25ZM91 4.5V3.5H90V4.5H91ZM89.25 7.25H91V5.25H89.25V7.25ZM90 6.25V8H92V6.25H90ZM91 7H89.25V9H91V7ZM88.25 8V13.25H90.25V8H88.25ZM89.25 12.25H85.75V14.25H89.25V12.25ZM86.75 13.25V4.5H84.75V13.25H86.75ZM85.75 5.5H89.25V3.5H85.75V5.5ZM88.25 4.5V6.25H90.25V4.5H88.25ZM95.25 4.5V6.25H97.25V4.5H95.25ZM96.25 5.25H91V7.25H96.25V5.25ZM92 6.25V4.5H90V6.25H92ZM91 5.5H96.25V3.5H91V5.5ZM103.25 13.25H102.25V14.25H103.25V13.25ZM103.25 6.25H104.25V5.25H103.25V6.25ZM99.75 6.25H98.75V7.25H99.75V6.25ZM99.75 4.5V3.5H98.75V4.5H99.75ZM103.25 4.5V5.5H104.25V4.5H103.25ZM103.25 1V0H102.25V1H103.25ZM106.75 1H107.75V0H106.75V1ZM106.75 4.5H105.75V5.5H106.75V4.5ZM110.25 4.5H111.25V3.5H110.25V4.5ZM110.25 6.25V7.25H111.25V6.25H110.25ZM106.75 6.25V5.25H105.75V6.25H106.75ZM106.75 13.25V14.25H107.75V13.25H106.75ZM104.25 13.25V6.25H102.25V13.25H104.25ZM103.25 5.25H99.75V7.25H103.25V5.25ZM100.75 6.25V4.5H98.75V6.25H100.75ZM99.75 5.5H103.25V3.5H99.75V5.5ZM104.25 4.5V1H102.25V4.5H104.25ZM103.25 2H106.75V0H103.25V2ZM105.75 1V4.5H107.75V1H105.75ZM106.75 5.5H110.25V3.5H106.75V5.5ZM109.25 4.5V6.25H111.25V4.5H109.25ZM110.25 5.25H106.75V7.25H110.25V5.25ZM105.75 6.25V13.25H107.75V6.25H105.75ZM106.75 12.25H103.25V14.25H106.75V12.25ZM113.75 13.25H112.75V14.25H113.75V13.25ZM113.75 11.5V10.5H112.75V11.5H113.75ZM115.5 11.5V12.5H116.5V11.5H115.5ZM115.5 9.75V8.75H114.5V9.75H115.5ZM117.25 9.75V10.75H118.25V9.75H117.25ZM117.25 8V7H116.25V8H117.25ZM119 8V9H120V8H119ZM119 6.25H120V5.25H119V6.25ZM117.25 6.25H116.25V7.25H117.25V6.25ZM117.25 4.5H118.25V3.5H117.25V4.5ZM115.5 4.5H114.5V5.5H115.5V4.5ZM115.5 2.75H116.5V1.75H115.5V2.75ZM113.75 2.75H112.75V3.75H113.75V2.75ZM113.75 1V0H112.75V1H113.75ZM117.25 1H118.25V0H117.25V1ZM117.25 2.75H116.25V3.75H117.25V2.75ZM119 2.75H120V1.75H119V2.75ZM119 4.5H118V5.5H119V4.5ZM120.75 4.5H121.75V3.5H120.75V4.5ZM120.75 6.25H119.75V7.25H120.75V6.25ZM122.5 6.25H123.5V5.25H122.5V6.25ZM122.5 8V9H123.5V8H122.5ZM120.75 8V7H119.75V8H120.75ZM120.75 9.75V10.75H121.75V9.75H120.75ZM119 9.75V8.75H118V9.75H119ZM119 11.5V12.5H120V11.5H119ZM117.25 11.5V10.5H116.25V11.5H117.25ZM117.25 13.25V14.25H118.25V13.25H117.25ZM114.75 13.25V11.5H112.75V13.25H114.75ZM113.75 12.5H115.5V10.5H113.75V12.5ZM116.5 11.5V9.75H114.5V11.5H116.5ZM115.5 10.75H117.25V8.75H115.5V10.75ZM118.25 9.75V8H116.25V9.75H118.25ZM117.25 9H119V7H117.25V9ZM120 8V6.25H118V8H120ZM119 5.25H117.25V7.25H119V5.25ZM118.25 6.25V4.5H116.25V6.25H118.25ZM117.25 3.5H115.5V5.5H117.25V3.5ZM116.5 4.5V2.75H114.5V4.5H116.5ZM115.5 1.75H113.75V3.75H115.5V1.75ZM114.75 2.75V1H112.75V2.75H114.75ZM113.75 2H117.25V0H113.75V2ZM116.25 1V2.75H118.25V1H116.25ZM117.25 3.75H119V1.75H117.25V3.75ZM118 2.75V4.5H120V2.75H118ZM119 5.5H120.75V3.5H119V5.5ZM119.75 4.5V6.25H121.75V4.5H119.75ZM120.75 7.25H122.5V5.25H120.75V7.25ZM121.5 6.25V8H123.5V6.25H121.5ZM122.5 7H120.75V9H122.5V7ZM119.75 8V9.75H121.75V8H119.75ZM120.75 8.75H119V10.75H120.75V8.75ZM118 9.75V11.5H120V9.75H118ZM119 10.5H117.25V12.5H119V10.5ZM116.25 11.5V13.25H118.25V11.5H116.25ZM117.25 12.25H113.75V14.25H117.25V12.25Z" fill="white" mask="url(#path-1-outside-1_0_1161)"/>
</g>
</svg>
