<svg width="96" height="15" viewBox="0 0 96 15" fill="none" xmlns="http://www.w3.org/2000/svg">
<g style="mix-blend-mode:hard-light" opacity="0.5">
<mask id="path-1-outside-1_0_975" maskUnits="userSpaceOnUse" x="0" y="0" width="96" height="15" fill="black">
<rect fill="white" width="96" height="15"/>
<path d="M7 13.25V11.5H5.25V9.75H3.5V8H1.75V6.25H3.5V4.5H5.25V2.75H7V1H10.5V2.75H8.75V4.5H7V6.25H5.25V8H7V9.75H8.75V11.5H10.5V13.25H7ZM26.25 1V2.75H24.5V1H26.25ZM22.75 2.75H24.5V4.5H22.75V2.75ZM21 4.5H22.75V6.25H21V4.5ZM19.25 6.25H21V8H19.25V6.25ZM17.5 8H19.25V9.75H17.5V8ZM15.75 9.75H17.5V11.5H15.75V9.75ZM14 11.5H15.75V13.25H14V11.5ZM28 13.25V1H31.5V6.25H36.75V1H40.25V13.25H36.75V8H31.5V13.25H28ZM47.25 13.25V2.75H43.75V1H54.25V2.75H50.75V13.25H47.25ZM56 13.25V1H59.5V2.75H61.25V4.5H63V2.75H64.75V1H68.25V13.25H64.75V6.25H63V9.75H61.25V6.25H59.5V13.25H56ZM71.75 13.25V1H75.25V11.5H82.25V13.25H71.75ZM85.75 13.25V11.5H87.5V9.75H89.25V8H91V6.25H89.25V4.5H87.5V2.75H85.75V1H89.25V2.75H91V4.5H92.75V6.25H94.5V8H92.75V9.75H91V11.5H89.25V13.25H85.75Z"/>
</mask>
<path d="M7 13.25V11.5H5.25V9.75H3.5V8H1.75V6.25H3.5V4.5H5.25V2.75H7V1H10.5V2.75H8.75V4.5H7V6.25H5.25V8H7V9.75H8.75V11.5H10.5V13.25H7ZM26.25 1V2.75H24.5V1H26.25ZM22.75 2.75H24.5V4.5H22.75V2.75ZM21 4.5H22.75V6.25H21V4.5ZM19.25 6.25H21V8H19.25V6.25ZM17.5 8H19.25V9.75H17.5V8ZM15.75 9.75H17.5V11.5H15.75V9.75ZM14 11.5H15.75V13.25H14V11.5ZM28 13.25V1H31.5V6.25H36.75V1H40.25V13.25H36.75V8H31.5V13.25H28ZM47.25 13.25V2.75H43.75V1H54.25V2.75H50.75V13.25H47.25ZM56 13.25V1H59.5V2.75H61.25V4.5H63V2.75H64.75V1H68.25V13.25H64.75V6.25H63V9.75H61.25V6.25H59.5V13.25H56ZM71.75 13.25V1H75.25V11.5H82.25V13.25H71.75ZM85.75 13.25V11.5H87.5V9.75H89.25V8H91V6.25H89.25V4.5H87.5V2.75H85.75V1H89.25V2.75H91V4.5H92.75V6.25H94.5V8H92.75V9.75H91V11.5H89.25V13.25H85.75Z" fill="black"/>
<path d="M7 13.25H6V14.25H7V13.25ZM7 11.5H8V10.5H7V11.5ZM5.25 11.5H4.25V12.5H5.25V11.5ZM5.25 9.75H6.25V8.75H5.25V9.75ZM3.5 9.75H2.5V10.75H3.5V9.75ZM3.5 8H4.5V7H3.5V8ZM1.75 8H0.75V9H1.75V8ZM1.75 6.25V5.25H0.75V6.25H1.75ZM3.5 6.25V7.25H4.5V6.25H3.5ZM3.5 4.5V3.5H2.5V4.5H3.5ZM5.25 4.5V5.5H6.25V4.5H5.25ZM5.25 2.75V1.75H4.25V2.75H5.25ZM7 2.75V3.75H8V2.75H7ZM7 1V0H6V1H7ZM10.5 1H11.5V0H10.5V1ZM10.5 2.75V3.75H11.5V2.75H10.5ZM8.75 2.75V1.75H7.75V2.75H8.75ZM8.75 4.5V5.5H9.75V4.5H8.75ZM7 4.5V3.5H6V4.5H7ZM7 6.25V7.25H8V6.25H7ZM5.25 6.25V5.25H4.25V6.25H5.25ZM5.25 8H4.25V9H5.25V8ZM7 8H8V7H7V8ZM7 9.75H6V10.75H7V9.75ZM8.75 9.75H9.75V8.75H8.75V9.75ZM8.75 11.5H7.75V12.5H8.75V11.5ZM10.5 11.5H11.5V10.5H10.5V11.5ZM10.5 13.25V14.25H11.5V13.25H10.5ZM8 13.25V11.5H6V13.25H8ZM7 10.5H5.25V12.5H7V10.5ZM6.25 11.5V9.75H4.25V11.5H6.25ZM5.25 8.75H3.5V10.75H5.25V8.75ZM4.5 9.75V8H2.5V9.75H4.5ZM3.5 7H1.75V9H3.5V7ZM2.75 8V6.25H0.75V8H2.75ZM1.75 7.25H3.5V5.25H1.75V7.25ZM4.5 6.25V4.5H2.5V6.25H4.5ZM3.5 5.5H5.25V3.5H3.5V5.5ZM6.25 4.5V2.75H4.25V4.5H6.25ZM5.25 3.75H7V1.75H5.25V3.75ZM8 2.75V1H6V2.75H8ZM7 2H10.5V0H7V2ZM9.5 1V2.75H11.5V1H9.5ZM10.5 1.75H8.75V3.75H10.5V1.75ZM7.75 2.75V4.5H9.75V2.75H7.75ZM8.75 3.5H7V5.5H8.75V3.5ZM6 4.5V6.25H8V4.5H6ZM7 5.25H5.25V7.25H7V5.25ZM4.25 6.25V8H6.25V6.25H4.25ZM5.25 9H7V7H5.25V9ZM6 8V9.75H8V8H6ZM7 10.75H8.75V8.75H7V10.75ZM7.75 9.75V11.5H9.75V9.75H7.75ZM8.75 12.5H10.5V10.5H8.75V12.5ZM9.5 11.5V13.25H11.5V11.5H9.5ZM10.5 12.25H7V14.25H10.5V12.25ZM26.25 1H27.25V0H26.25V1ZM26.25 2.75V3.75H27.25V2.75H26.25ZM24.5 2.75H23.5V3.75H24.5V2.75ZM24.5 1V0H23.5V1H24.5ZM22.75 2.75V1.75H21.75V2.75H22.75ZM24.5 2.75H25.5V1.75H24.5V2.75ZM24.5 4.5V5.5H25.5V4.5H24.5ZM22.75 4.5H21.75V5.5H22.75V4.5ZM21 4.5V3.5H20V4.5H21ZM22.75 4.5H23.75V3.5H22.75V4.5ZM22.75 6.25V7.25H23.75V6.25H22.75ZM21 6.25H20V7.25H21V6.25ZM19.25 6.25V5.25H18.25V6.25H19.25ZM21 6.25H22V5.25H21V6.25ZM21 8V9H22V8H21ZM19.25 8H18.25V9H19.25V8ZM17.5 8V7H16.5V8H17.5ZM19.25 8H20.25V7H19.25V8ZM19.25 9.75V10.75H20.25V9.75H19.25ZM17.5 9.75H16.5V10.75H17.5V9.75ZM15.75 9.75V8.75H14.75V9.75H15.75ZM17.5 9.75H18.5V8.75H17.5V9.75ZM17.5 11.5V12.5H18.5V11.5H17.5ZM15.75 11.5H14.75V12.5H15.75V11.5ZM14 11.5V10.5H13V11.5H14ZM15.75 11.5H16.75V10.5H15.75V11.5ZM15.75 13.25V14.25H16.75V13.25H15.75ZM14 13.25H13V14.25H14V13.25ZM25.25 1V2.75H27.25V1H25.25ZM26.25 1.75H24.5V3.75H26.25V1.75ZM25.5 2.75V1H23.5V2.75H25.5ZM24.5 2H26.25V0H24.5V2ZM22.75 3.75H24.5V1.75H22.75V3.75ZM23.5 2.75V4.5H25.5V2.75H23.5ZM24.5 3.5H22.75V5.5H24.5V3.5ZM23.75 4.5V2.75H21.75V4.5H23.75ZM21 5.5H22.75V3.5H21V5.5ZM21.75 4.5V6.25H23.75V4.5H21.75ZM22.75 5.25H21V7.25H22.75V5.25ZM22 6.25V4.5H20V6.25H22ZM19.25 7.25H21V5.25H19.25V7.25ZM20 6.25V8H22V6.25H20ZM21 7H19.25V9H21V7ZM20.25 8V6.25H18.25V8H20.25ZM17.5 9H19.25V7H17.5V9ZM18.25 8V9.75H20.25V8H18.25ZM19.25 8.75H17.5V10.75H19.25V8.75ZM18.5 9.75V8H16.5V9.75H18.5ZM15.75 10.75H17.5V8.75H15.75V10.75ZM16.5 9.75V11.5H18.5V9.75H16.5ZM17.5 10.5H15.75V12.5H17.5V10.5ZM16.75 11.5V9.75H14.75V11.5H16.75ZM14 12.5H15.75V10.5H14V12.5ZM14.75 11.5V13.25H16.75V11.5H14.75ZM15.75 12.25H14V14.25H15.75V12.25ZM15 13.25V11.5H13V13.25H15ZM28 13.25H27V14.25H28V13.25ZM28 1V0H27V1H28ZM31.5 1H32.5V0H31.5V1ZM31.5 6.25H30.5V7.25H31.5V6.25ZM36.75 6.25V7.25H37.75V6.25H36.75ZM36.75 1V0H35.75V1H36.75ZM40.25 1H41.25V0H40.25V1ZM40.25 13.25V14.25H41.25V13.25H40.25ZM36.75 13.25H35.75V14.25H36.75V13.25ZM36.75 8H37.75V7H36.75V8ZM31.5 8V7H30.5V8H31.5ZM31.5 13.25V14.25H32.5V13.25H31.5ZM29 13.25V1H27V13.25H29ZM28 2H31.5V0H28V2ZM30.5 1V6.25H32.5V1H30.5ZM31.5 7.25H36.75V5.25H31.5V7.25ZM37.75 6.25V1H35.75V6.25H37.75ZM36.75 2H40.25V0H36.75V2ZM39.25 1V13.25H41.25V1H39.25ZM40.25 12.25H36.75V14.25H40.25V12.25ZM37.75 13.25V8H35.75V13.25H37.75ZM36.75 7H31.5V9H36.75V7ZM30.5 8V13.25H32.5V8H30.5ZM31.5 12.25H28V14.25H31.5V12.25ZM47.25 13.25H46.25V14.25H47.25V13.25ZM47.25 2.75H48.25V1.75H47.25V2.75ZM43.75 2.75H42.75V3.75H43.75V2.75ZM43.75 1V0H42.75V1H43.75ZM54.25 1H55.25V0H54.25V1ZM54.25 2.75V3.75H55.25V2.75H54.25ZM50.75 2.75V1.75H49.75V2.75H50.75ZM50.75 13.25V14.25H51.75V13.25H50.75ZM48.25 13.25V2.75H46.25V13.25H48.25ZM47.25 1.75H43.75V3.75H47.25V1.75ZM44.75 2.75V1H42.75V2.75H44.75ZM43.75 2H54.25V0H43.75V2ZM53.25 1V2.75H55.25V1H53.25ZM54.25 1.75H50.75V3.75H54.25V1.75ZM49.75 2.75V13.25H51.75V2.75H49.75ZM50.75 12.25H47.25V14.25H50.75V12.25ZM56 13.25H55V14.25H56V13.25ZM56 1V0H55V1H56ZM59.5 1H60.5V0H59.5V1ZM59.5 2.75H58.5V3.75H59.5V2.75ZM61.25 2.75H62.25V1.75H61.25V2.75ZM61.25 4.5H60.25V5.5H61.25V4.5ZM63 4.5V5.5H64V4.5H63ZM63 2.75V1.75H62V2.75H63ZM64.75 2.75V3.75H65.75V2.75H64.75ZM64.75 1V0H63.75V1H64.75ZM68.25 1H69.25V0H68.25V1ZM68.25 13.25V14.25H69.25V13.25H68.25ZM64.75 13.25H63.75V14.25H64.75V13.25ZM64.75 6.25H65.75V5.25H64.75V6.25ZM63 6.25V5.25H62V6.25H63ZM63 9.75V10.75H64V9.75H63ZM61.25 9.75H60.25V10.75H61.25V9.75ZM61.25 6.25H62.25V5.25H61.25V6.25ZM59.5 6.25V5.25H58.5V6.25H59.5ZM59.5 13.25V14.25H60.5V13.25H59.5ZM57 13.25V1H55V13.25H57ZM56 2H59.5V0H56V2ZM58.5 1V2.75H60.5V1H58.5ZM59.5 3.75H61.25V1.75H59.5V3.75ZM60.25 2.75V4.5H62.25V2.75H60.25ZM61.25 5.5H63V3.5H61.25V5.5ZM64 4.5V2.75H62V4.5H64ZM63 3.75H64.75V1.75H63V3.75ZM65.75 2.75V1H63.75V2.75H65.75ZM64.75 2H68.25V0H64.75V2ZM67.25 1V13.25H69.25V1H67.25ZM68.25 12.25H64.75V14.25H68.25V12.25ZM65.75 13.25V6.25H63.75V13.25H65.75ZM64.75 5.25H63V7.25H64.75V5.25ZM62 6.25V9.75H64V6.25H62ZM63 8.75H61.25V10.75H63V8.75ZM62.25 9.75V6.25H60.25V9.75H62.25ZM61.25 5.25H59.5V7.25H61.25V5.25ZM58.5 6.25V13.25H60.5V6.25H58.5ZM59.5 12.25H56V14.25H59.5V12.25ZM71.75 13.25H70.75V14.25H71.75V13.25ZM71.75 1V0H70.75V1H71.75ZM75.25 1H76.25V0H75.25V1ZM75.25 11.5H74.25V12.5H75.25V11.5ZM82.25 11.5H83.25V10.5H82.25V11.5ZM82.25 13.25V14.25H83.25V13.25H82.25ZM72.75 13.25V1H70.75V13.25H72.75ZM71.75 2H75.25V0H71.75V2ZM74.25 1V11.5H76.25V1H74.25ZM75.25 12.5H82.25V10.5H75.25V12.5ZM81.25 11.5V13.25H83.25V11.5H81.25ZM82.25 12.25H71.75V14.25H82.25V12.25ZM85.75 13.25H84.75V14.25H85.75V13.25ZM85.75 11.5V10.5H84.75V11.5H85.75ZM87.5 11.5V12.5H88.5V11.5H87.5ZM87.5 9.75V8.75H86.5V9.75H87.5ZM89.25 9.75V10.75H90.25V9.75H89.25ZM89.25 8V7H88.25V8H89.25ZM91 8V9H92V8H91ZM91 6.25H92V5.25H91V6.25ZM89.25 6.25H88.25V7.25H89.25V6.25ZM89.25 4.5H90.25V3.5H89.25V4.5ZM87.5 4.5H86.5V5.5H87.5V4.5ZM87.5 2.75H88.5V1.75H87.5V2.75ZM85.75 2.75H84.75V3.75H85.75V2.75ZM85.75 1V0H84.75V1H85.75ZM89.25 1H90.25V0H89.25V1ZM89.25 2.75H88.25V3.75H89.25V2.75ZM91 2.75H92V1.75H91V2.75ZM91 4.5H90V5.5H91V4.5ZM92.75 4.5H93.75V3.5H92.75V4.5ZM92.75 6.25H91.75V7.25H92.75V6.25ZM94.5 6.25H95.5V5.25H94.5V6.25ZM94.5 8V9H95.5V8H94.5ZM92.75 8V7H91.75V8H92.75ZM92.75 9.75V10.75H93.75V9.75H92.75ZM91 9.75V8.75H90V9.75H91ZM91 11.5V12.5H92V11.5H91ZM89.25 11.5V10.5H88.25V11.5H89.25ZM89.25 13.25V14.25H90.25V13.25H89.25ZM86.75 13.25V11.5H84.75V13.25H86.75ZM85.75 12.5H87.5V10.5H85.75V12.5ZM88.5 11.5V9.75H86.5V11.5H88.5ZM87.5 10.75H89.25V8.75H87.5V10.75ZM90.25 9.75V8H88.25V9.75H90.25ZM89.25 9H91V7H89.25V9ZM92 8V6.25H90V8H92ZM91 5.25H89.25V7.25H91V5.25ZM90.25 6.25V4.5H88.25V6.25H90.25ZM89.25 3.5H87.5V5.5H89.25V3.5ZM88.5 4.5V2.75H86.5V4.5H88.5ZM87.5 1.75H85.75V3.75H87.5V1.75ZM86.75 2.75V1H84.75V2.75H86.75ZM85.75 2H89.25V0H85.75V2ZM88.25 1V2.75H90.25V1H88.25ZM89.25 3.75H91V1.75H89.25V3.75ZM90 2.75V4.5H92V2.75H90ZM91 5.5H92.75V3.5H91V5.5ZM91.75 4.5V6.25H93.75V4.5H91.75ZM92.75 7.25H94.5V5.25H92.75V7.25ZM93.5 6.25V8H95.5V6.25H93.5ZM94.5 7H92.75V9H94.5V7ZM91.75 8V9.75H93.75V8H91.75ZM92.75 8.75H91V10.75H92.75V8.75ZM90 9.75V11.5H92V9.75H90ZM91 10.5H89.25V12.5H91V10.5ZM88.25 11.5V13.25H90.25V11.5H88.25ZM89.25 12.25H85.75V14.25H89.25V12.25Z" fill="white" mask="url(#path-1-outside-1_0_975)"/>
</g>
</svg>
