<svg width="166" height="16" viewBox="0 0 166 16" fill="none" xmlns="http://www.w3.org/2000/svg">
<g style="mix-blend-mode:hard-light" opacity="0.5">
<mask id="path-1-outside-1_0_1235" maskUnits="userSpaceOnUse" x="0" y="0" width="166" height="16" fill="black">
<rect fill="white" width="166" height="16"/>
<path d="M7 13.25V11.5H5.25V9.75H3.5V8H1.75V6.25H3.5V4.5H5.25V2.75H7V1H10.5V2.75H8.75V4.5H7V6.25H5.25V8H7V9.75H8.75V11.5H10.5V13.25H7ZM15.75 13.25V11.5H14V6.25H15.75V4.5H24.5V6.25H26.25V9.75H17.5V11.5H24.5V13.25H15.75ZM17.5 8H22.75V6.25H17.5V8ZM28 13.25V11.5H29.75V9.75H31.5V8H29.75V6.25H28V4.5H31.5V6.25H33.25V8H35V6.25H36.75V4.5H40.25V6.25H38.5V8H36.75V9.75H38.5V11.5H40.25V13.25H36.75V11.5H35V9.75H33.25V11.5H31.5V13.25H28ZM42 15V4.5H52.5V6.25H54.25V9.75H52.5V11.5H45.5V15H42ZM45.5 9.75H50.75V6.25H45.5V9.75ZM57.75 13.25V11.5H56V6.25H57.75V4.5H66.5V6.25H68.25V9.75H59.5V11.5H66.5V13.25H57.75ZM59.5 8H64.75V6.25H59.5V8ZM75.25 6.25H77V8H75.25V13.25H71.75V4.5H75.25V6.25ZM82.25 4.5V6.25H77V4.5H82.25ZM89.25 2.75V1H92.75V2.75H89.25ZM85.75 13.25V11.5H89.25V6.25H87.5V4.5H92.75V11.5H96.25V13.25H85.75ZM99.75 13.25V11.5H98V6.25H99.75V4.5H108.5V6.25H110.25V9.75H101.5V11.5H108.5V13.25H99.75ZM101.5 8H106.75V6.25H101.5V8ZM112 13.25V4.5H122.5V6.25H124.25V13.25H120.75V6.25H115.5V13.25H112ZM127.75 13.25V11.5H126V6.25H127.75V4.5H138.25V6.25H129.5V11.5H138.25V13.25H127.75ZM141.75 13.25V11.5H140V6.25H141.75V4.5H150.5V6.25H152.25V9.75H143.5V11.5H150.5V13.25H141.75ZM143.5 8H148.75V6.25H143.5V8ZM155.75 13.25V11.5H157.5V9.75H159.25V8H161V6.25H159.25V4.5H157.5V2.75H155.75V1H159.25V2.75H161V4.5H162.75V6.25H164.5V8H162.75V9.75H161V11.5H159.25V13.25H155.75Z"/>
</mask>
<path d="M7 13.25V11.5H5.25V9.75H3.5V8H1.75V6.25H3.5V4.5H5.25V2.75H7V1H10.5V2.75H8.75V4.5H7V6.25H5.25V8H7V9.75H8.75V11.5H10.5V13.25H7ZM15.75 13.25V11.5H14V6.25H15.75V4.5H24.5V6.25H26.25V9.75H17.5V11.5H24.5V13.25H15.75ZM17.5 8H22.75V6.25H17.5V8ZM28 13.25V11.5H29.75V9.75H31.5V8H29.75V6.25H28V4.5H31.5V6.25H33.25V8H35V6.25H36.75V4.5H40.25V6.25H38.5V8H36.75V9.75H38.5V11.5H40.25V13.25H36.75V11.5H35V9.75H33.25V11.5H31.5V13.25H28ZM42 15V4.5H52.5V6.25H54.25V9.75H52.5V11.5H45.5V15H42ZM45.5 9.75H50.75V6.25H45.5V9.75ZM57.75 13.25V11.5H56V6.25H57.75V4.5H66.5V6.25H68.25V9.75H59.5V11.5H66.5V13.25H57.75ZM59.5 8H64.75V6.25H59.5V8ZM75.25 6.25H77V8H75.25V13.25H71.75V4.5H75.25V6.25ZM82.25 4.5V6.25H77V4.5H82.25ZM89.25 2.75V1H92.75V2.75H89.25ZM85.75 13.25V11.5H89.25V6.25H87.5V4.5H92.75V11.5H96.25V13.25H85.75ZM99.75 13.25V11.5H98V6.25H99.75V4.5H108.5V6.25H110.25V9.75H101.5V11.5H108.5V13.25H99.75ZM101.5 8H106.75V6.25H101.5V8ZM112 13.25V4.5H122.5V6.25H124.25V13.25H120.75V6.25H115.5V13.25H112ZM127.75 13.25V11.5H126V6.25H127.75V4.5H138.25V6.25H129.5V11.5H138.25V13.25H127.75ZM141.75 13.25V11.5H140V6.25H141.75V4.5H150.5V6.25H152.25V9.75H143.5V11.5H150.5V13.25H141.75ZM143.5 8H148.75V6.25H143.5V8ZM155.75 13.25V11.5H157.5V9.75H159.25V8H161V6.25H159.25V4.5H157.5V2.75H155.75V1H159.25V2.75H161V4.5H162.75V6.25H164.5V8H162.75V9.75H161V11.5H159.25V13.25H155.75Z" fill="black"/>
<path d="M7 13.25H6V14.25H7V13.25ZM7 11.5H8V10.5H7V11.5ZM5.25 11.5H4.25V12.5H5.25V11.5ZM5.25 9.75H6.25V8.75H5.25V9.75ZM3.5 9.75H2.5V10.75H3.5V9.75ZM3.5 8H4.5V7H3.5V8ZM1.75 8H0.75V9H1.75V8ZM1.75 6.25V5.25H0.75V6.25H1.75ZM3.5 6.25V7.25H4.5V6.25H3.5ZM3.5 4.5V3.5H2.5V4.5H3.5ZM5.25 4.5V5.5H6.25V4.5H5.25ZM5.25 2.75V1.75H4.25V2.75H5.25ZM7 2.75V3.75H8V2.75H7ZM7 1V0H6V1H7ZM10.5 1H11.5V0H10.5V1ZM10.5 2.75V3.75H11.5V2.75H10.5ZM8.75 2.75V1.75H7.75V2.75H8.75ZM8.75 4.5V5.5H9.75V4.5H8.75ZM7 4.5V3.5H6V4.5H7ZM7 6.25V7.25H8V6.25H7ZM5.25 6.25V5.25H4.25V6.25H5.25ZM5.25 8H4.25V9H5.25V8ZM7 8H8V7H7V8ZM7 9.75H6V10.75H7V9.75ZM8.75 9.75H9.75V8.75H8.75V9.75ZM8.75 11.5H7.75V12.5H8.75V11.5ZM10.5 11.5H11.5V10.5H10.5V11.5ZM10.5 13.25V14.25H11.5V13.25H10.5ZM8 13.25V11.5H6V13.25H8ZM7 10.5H5.25V12.5H7V10.5ZM6.25 11.5V9.75H4.25V11.5H6.25ZM5.25 8.75H3.5V10.75H5.25V8.75ZM4.5 9.75V8H2.5V9.75H4.5ZM3.5 7H1.75V9H3.5V7ZM2.75 8V6.25H0.75V8H2.75ZM1.75 7.25H3.5V5.25H1.75V7.25ZM4.5 6.25V4.5H2.5V6.25H4.5ZM3.5 5.5H5.25V3.5H3.5V5.5ZM6.25 4.5V2.75H4.25V4.5H6.25ZM5.25 3.75H7V1.75H5.25V3.75ZM8 2.75V1H6V2.75H8ZM7 2H10.5V0H7V2ZM9.5 1V2.75H11.5V1H9.5ZM10.5 1.75H8.75V3.75H10.5V1.75ZM7.75 2.75V4.5H9.75V2.75H7.75ZM8.75 3.5H7V5.5H8.75V3.5ZM6 4.5V6.25H8V4.5H6ZM7 5.25H5.25V7.25H7V5.25ZM4.25 6.25V8H6.25V6.25H4.25ZM5.25 9H7V7H5.25V9ZM6 8V9.75H8V8H6ZM7 10.75H8.75V8.75H7V10.75ZM7.75 9.75V11.5H9.75V9.75H7.75ZM8.75 12.5H10.5V10.5H8.75V12.5ZM9.5 11.5V13.25H11.5V11.5H9.5ZM10.5 12.25H7V14.25H10.5V12.25ZM15.75 13.25H14.75V14.25H15.75V13.25ZM15.75 11.5H16.75V10.5H15.75V11.5ZM14 11.5H13V12.5H14V11.5ZM14 6.25V5.25H13V6.25H14ZM15.75 6.25V7.25H16.75V6.25H15.75ZM15.75 4.5V3.5H14.75V4.5H15.75ZM24.5 4.5H25.5V3.5H24.5V4.5ZM24.5 6.25H23.5V7.25H24.5V6.25ZM26.25 6.25H27.25V5.25H26.25V6.25ZM26.25 9.75V10.75H27.25V9.75H26.25ZM17.5 9.75V8.75H16.5V9.75H17.5ZM17.5 11.5H16.5V12.5H17.5V11.5ZM24.5 11.5H25.5V10.5H24.5V11.5ZM24.5 13.25V14.25H25.5V13.25H24.5ZM17.5 8H16.5V9H17.5V8ZM22.75 8V9H23.75V8H22.75ZM22.75 6.25H23.75V5.25H22.75V6.25ZM17.5 6.25V5.25H16.5V6.25H17.5ZM16.75 13.25V11.5H14.75V13.25H16.75ZM15.75 10.5H14V12.5H15.75V10.5ZM15 11.5V6.25H13V11.5H15ZM14 7.25H15.75V5.25H14V7.25ZM16.75 6.25V4.5H14.75V6.25H16.75ZM15.75 5.5H24.5V3.5H15.75V5.5ZM23.5 4.5V6.25H25.5V4.5H23.5ZM24.5 7.25H26.25V5.25H24.5V7.25ZM25.25 6.25V9.75H27.25V6.25H25.25ZM26.25 8.75H17.5V10.75H26.25V8.75ZM16.5 9.75V11.5H18.5V9.75H16.5ZM17.5 12.5H24.5V10.5H17.5V12.5ZM23.5 11.5V13.25H25.5V11.5H23.5ZM24.5 12.25H15.75V14.25H24.5V12.25ZM17.5 9H22.75V7H17.5V9ZM23.75 8V6.25H21.75V8H23.75ZM22.75 5.25H17.5V7.25H22.75V5.25ZM16.5 6.25V8H18.5V6.25H16.5ZM28 13.25H27V14.25H28V13.25ZM28 11.5V10.5H27V11.5H28ZM29.75 11.5V12.5H30.75V11.5H29.75ZM29.75 9.75V8.75H28.75V9.75H29.75ZM31.5 9.75V10.75H32.5V9.75H31.5ZM31.5 8H32.5V7H31.5V8ZM29.75 8H28.75V9H29.75V8ZM29.75 6.25H30.75V5.25H29.75V6.25ZM28 6.25H27V7.25H28V6.25ZM28 4.5V3.5H27V4.5H28ZM31.5 4.5H32.5V3.5H31.5V4.5ZM31.5 6.25H30.5V7.25H31.5V6.25ZM33.25 6.25H34.25V5.25H33.25V6.25ZM33.25 8H32.25V9H33.25V8ZM35 8V9H36V8H35ZM35 6.25V5.25H34V6.25H35ZM36.75 6.25V7.25H37.75V6.25H36.75ZM36.75 4.5V3.5H35.75V4.5H36.75ZM40.25 4.5H41.25V3.5H40.25V4.5ZM40.25 6.25V7.25H41.25V6.25H40.25ZM38.5 6.25V5.25H37.5V6.25H38.5ZM38.5 8V9H39.5V8H38.5ZM36.75 8V7H35.75V8H36.75ZM36.75 9.75H35.75V10.75H36.75V9.75ZM38.5 9.75H39.5V8.75H38.5V9.75ZM38.5 11.5H37.5V12.5H38.5V11.5ZM40.25 11.5H41.25V10.5H40.25V11.5ZM40.25 13.25V14.25H41.25V13.25H40.25ZM36.75 13.25H35.75V14.25H36.75V13.25ZM36.75 11.5H37.75V10.5H36.75V11.5ZM35 11.5H34V12.5H35V11.5ZM35 9.75H36V8.75H35V9.75ZM33.25 9.75V8.75H32.25V9.75H33.25ZM33.25 11.5V12.5H34.25V11.5H33.25ZM31.5 11.5V10.5H30.5V11.5H31.5ZM31.5 13.25V14.25H32.5V13.25H31.5ZM29 13.25V11.5H27V13.25H29ZM28 12.5H29.75V10.5H28V12.5ZM30.75 11.5V9.75H28.75V11.5H30.75ZM29.75 10.75H31.5V8.75H29.75V10.75ZM32.5 9.75V8H30.5V9.75H32.5ZM31.5 7H29.75V9H31.5V7ZM30.75 8V6.25H28.75V8H30.75ZM29.75 5.25H28V7.25H29.75V5.25ZM29 6.25V4.5H27V6.25H29ZM28 5.5H31.5V3.5H28V5.5ZM30.5 4.5V6.25H32.5V4.5H30.5ZM31.5 7.25H33.25V5.25H31.5V7.25ZM32.25 6.25V8H34.25V6.25H32.25ZM33.25 9H35V7H33.25V9ZM36 8V6.25H34V8H36ZM35 7.25H36.75V5.25H35V7.25ZM37.75 6.25V4.5H35.75V6.25H37.75ZM36.75 5.5H40.25V3.5H36.75V5.5ZM39.25 4.5V6.25H41.25V4.5H39.25ZM40.25 5.25H38.5V7.25H40.25V5.25ZM37.5 6.25V8H39.5V6.25H37.5ZM38.5 7H36.75V9H38.5V7ZM35.75 8V9.75H37.75V8H35.75ZM36.75 10.75H38.5V8.75H36.75V10.75ZM37.5 9.75V11.5H39.5V9.75H37.5ZM38.5 12.5H40.25V10.5H38.5V12.5ZM39.25 11.5V13.25H41.25V11.5H39.25ZM40.25 12.25H36.75V14.25H40.25V12.25ZM37.75 13.25V11.5H35.75V13.25H37.75ZM36.75 10.5H35V12.5H36.75V10.5ZM36 11.5V9.75H34V11.5H36ZM35 8.75H33.25V10.75H35V8.75ZM32.25 9.75V11.5H34.25V9.75H32.25ZM33.25 10.5H31.5V12.5H33.25V10.5ZM30.5 11.5V13.25H32.5V11.5H30.5ZM31.5 12.25H28V14.25H31.5V12.25ZM42 15H41V16H42V15ZM42 4.5V3.5H41V4.5H42ZM52.5 4.5H53.5V3.5H52.5V4.5ZM52.5 6.25H51.5V7.25H52.5V6.25ZM54.25 6.25H55.25V5.25H54.25V6.25ZM54.25 9.75V10.75H55.25V9.75H54.25ZM52.5 9.75V8.75H51.5V9.75H52.5ZM52.5 11.5V12.5H53.5V11.5H52.5ZM45.5 11.5V10.5H44.5V11.5H45.5ZM45.5 15V16H46.5V15H45.5ZM45.5 9.75H44.5V10.75H45.5V9.75ZM50.75 9.75V10.75H51.75V9.75H50.75ZM50.75 6.25H51.75V5.25H50.75V6.25ZM45.5 6.25V5.25H44.5V6.25H45.5ZM43 15V4.5H41V15H43ZM42 5.5H52.5V3.5H42V5.5ZM51.5 4.5V6.25H53.5V4.5H51.5ZM52.5 7.25H54.25V5.25H52.5V7.25ZM53.25 6.25V9.75H55.25V6.25H53.25ZM54.25 8.75H52.5V10.75H54.25V8.75ZM51.5 9.75V11.5H53.5V9.75H51.5ZM52.5 10.5H45.5V12.5H52.5V10.5ZM44.5 11.5V15H46.5V11.5H44.5ZM45.5 14H42V16H45.5V14ZM45.5 10.75H50.75V8.75H45.5V10.75ZM51.75 9.75V6.25H49.75V9.75H51.75ZM50.75 5.25H45.5V7.25H50.75V5.25ZM44.5 6.25V9.75H46.5V6.25H44.5ZM57.75 13.25H56.75V14.25H57.75V13.25ZM57.75 11.5H58.75V10.5H57.75V11.5ZM56 11.5H55V12.5H56V11.5ZM56 6.25V5.25H55V6.25H56ZM57.75 6.25V7.25H58.75V6.25H57.75ZM57.75 4.5V3.5H56.75V4.5H57.75ZM66.5 4.5H67.5V3.5H66.5V4.5ZM66.5 6.25H65.5V7.25H66.5V6.25ZM68.25 6.25H69.25V5.25H68.25V6.25ZM68.25 9.75V10.75H69.25V9.75H68.25ZM59.5 9.75V8.75H58.5V9.75H59.5ZM59.5 11.5H58.5V12.5H59.5V11.5ZM66.5 11.5H67.5V10.5H66.5V11.5ZM66.5 13.25V14.25H67.5V13.25H66.5ZM59.5 8H58.5V9H59.5V8ZM64.75 8V9H65.75V8H64.75ZM64.75 6.25H65.75V5.25H64.75V6.25ZM59.5 6.25V5.25H58.5V6.25H59.5ZM58.75 13.25V11.5H56.75V13.25H58.75ZM57.75 10.5H56V12.5H57.75V10.5ZM57 11.5V6.25H55V11.5H57ZM56 7.25H57.75V5.25H56V7.25ZM58.75 6.25V4.5H56.75V6.25H58.75ZM57.75 5.5H66.5V3.5H57.75V5.5ZM65.5 4.5V6.25H67.5V4.5H65.5ZM66.5 7.25H68.25V5.25H66.5V7.25ZM67.25 6.25V9.75H69.25V6.25H67.25ZM68.25 8.75H59.5V10.75H68.25V8.75ZM58.5 9.75V11.5H60.5V9.75H58.5ZM59.5 12.5H66.5V10.5H59.5V12.5ZM65.5 11.5V13.25H67.5V11.5H65.5ZM66.5 12.25H57.75V14.25H66.5V12.25ZM59.5 9H64.75V7H59.5V9ZM65.75 8V6.25H63.75V8H65.75ZM64.75 5.25H59.5V7.25H64.75V5.25ZM58.5 6.25V8H60.5V6.25H58.5ZM75.25 6.25H74.25V7.25H75.25V6.25ZM77 6.25H78V5.25H77V6.25ZM77 8V9H78V8H77ZM75.25 8V7H74.25V8H75.25ZM75.25 13.25V14.25H76.25V13.25H75.25ZM71.75 13.25H70.75V14.25H71.75V13.25ZM71.75 4.5V3.5H70.75V4.5H71.75ZM75.25 4.5H76.25V3.5H75.25V4.5ZM82.25 4.5H83.25V3.5H82.25V4.5ZM82.25 6.25V7.25H83.25V6.25H82.25ZM77 6.25H76V7.25H77V6.25ZM77 4.5V3.5H76V4.5H77ZM75.25 7.25H77V5.25H75.25V7.25ZM76 6.25V8H78V6.25H76ZM77 7H75.25V9H77V7ZM74.25 8V13.25H76.25V8H74.25ZM75.25 12.25H71.75V14.25H75.25V12.25ZM72.75 13.25V4.5H70.75V13.25H72.75ZM71.75 5.5H75.25V3.5H71.75V5.5ZM74.25 4.5V6.25H76.25V4.5H74.25ZM81.25 4.5V6.25H83.25V4.5H81.25ZM82.25 5.25H77V7.25H82.25V5.25ZM78 6.25V4.5H76V6.25H78ZM77 5.5H82.25V3.5H77V5.5ZM89.25 2.75H88.25V3.75H89.25V2.75ZM89.25 1V0H88.25V1H89.25ZM92.75 1H93.75V0H92.75V1ZM92.75 2.75V3.75H93.75V2.75H92.75ZM85.75 13.25H84.75V14.25H85.75V13.25ZM85.75 11.5V10.5H84.75V11.5H85.75ZM89.25 11.5V12.5H90.25V11.5H89.25ZM89.25 6.25H90.25V5.25H89.25V6.25ZM87.5 6.25H86.5V7.25H87.5V6.25ZM87.5 4.5V3.5H86.5V4.5H87.5ZM92.75 4.5H93.75V3.5H92.75V4.5ZM92.75 11.5H91.75V12.5H92.75V11.5ZM96.25 11.5H97.25V10.5H96.25V11.5ZM96.25 13.25V14.25H97.25V13.25H96.25ZM90.25 2.75V1H88.25V2.75H90.25ZM89.25 2H92.75V0H89.25V2ZM91.75 1V2.75H93.75V1H91.75ZM92.75 1.75H89.25V3.75H92.75V1.75ZM86.75 13.25V11.5H84.75V13.25H86.75ZM85.75 12.5H89.25V10.5H85.75V12.5ZM90.25 11.5V6.25H88.25V11.5H90.25ZM89.25 5.25H87.5V7.25H89.25V5.25ZM88.5 6.25V4.5H86.5V6.25H88.5ZM87.5 5.5H92.75V3.5H87.5V5.5ZM91.75 4.5V11.5H93.75V4.5H91.75ZM92.75 12.5H96.25V10.5H92.75V12.5ZM95.25 11.5V13.25H97.25V11.5H95.25ZM96.25 12.25H85.75V14.25H96.25V12.25ZM99.75 13.25H98.75V14.25H99.75V13.25ZM99.75 11.5H100.75V10.5H99.75V11.5ZM98 11.5H97V12.5H98V11.5ZM98 6.25V5.25H97V6.25H98ZM99.75 6.25V7.25H100.75V6.25H99.75ZM99.75 4.5V3.5H98.75V4.5H99.75ZM108.5 4.5H109.5V3.5H108.5V4.5ZM108.5 6.25H107.5V7.25H108.5V6.25ZM110.25 6.25H111.25V5.25H110.25V6.25ZM110.25 9.75V10.75H111.25V9.75H110.25ZM101.5 9.75V8.75H100.5V9.75H101.5ZM101.5 11.5H100.5V12.5H101.5V11.5ZM108.5 11.5H109.5V10.5H108.5V11.5ZM108.5 13.25V14.25H109.5V13.25H108.5ZM101.5 8H100.5V9H101.5V8ZM106.75 8V9H107.75V8H106.75ZM106.75 6.25H107.75V5.25H106.75V6.25ZM101.5 6.25V5.25H100.5V6.25H101.5ZM100.75 13.25V11.5H98.75V13.25H100.75ZM99.75 10.5H98V12.5H99.75V10.5ZM99 11.5V6.25H97V11.5H99ZM98 7.25H99.75V5.25H98V7.25ZM100.75 6.25V4.5H98.75V6.25H100.75ZM99.75 5.5H108.5V3.5H99.75V5.5ZM107.5 4.5V6.25H109.5V4.5H107.5ZM108.5 7.25H110.25V5.25H108.5V7.25ZM109.25 6.25V9.75H111.25V6.25H109.25ZM110.25 8.75H101.5V10.75H110.25V8.75ZM100.5 9.75V11.5H102.5V9.75H100.5ZM101.5 12.5H108.5V10.5H101.5V12.5ZM107.5 11.5V13.25H109.5V11.5H107.5ZM108.5 12.25H99.75V14.25H108.5V12.25ZM101.5 9H106.75V7H101.5V9ZM107.75 8V6.25H105.75V8H107.75ZM106.75 5.25H101.5V7.25H106.75V5.25ZM100.5 6.25V8H102.5V6.25H100.5ZM112 13.25H111V14.25H112V13.25ZM112 4.5V3.5H111V4.5H112ZM122.5 4.5H123.5V3.5H122.5V4.5ZM122.5 6.25H121.5V7.25H122.5V6.25ZM124.25 6.25H125.25V5.25H124.25V6.25ZM124.25 13.25V14.25H125.25V13.25H124.25ZM120.75 13.25H119.75V14.25H120.75V13.25ZM120.75 6.25H121.75V5.25H120.75V6.25ZM115.5 6.25V5.25H114.5V6.25H115.5ZM115.5 13.25V14.25H116.5V13.25H115.5ZM113 13.25V4.5H111V13.25H113ZM112 5.5H122.5V3.5H112V5.5ZM121.5 4.5V6.25H123.5V4.5H121.5ZM122.5 7.25H124.25V5.25H122.5V7.25ZM123.25 6.25V13.25H125.25V6.25H123.25ZM124.25 12.25H120.75V14.25H124.25V12.25ZM121.75 13.25V6.25H119.75V13.25H121.75ZM120.75 5.25H115.5V7.25H120.75V5.25ZM114.5 6.25V13.25H116.5V6.25H114.5ZM115.5 12.25H112V14.25H115.5V12.25ZM127.75 13.25H126.75V14.25H127.75V13.25ZM127.75 11.5H128.75V10.5H127.75V11.5ZM126 11.5H125V12.5H126V11.5ZM126 6.25V5.25H125V6.25H126ZM127.75 6.25V7.25H128.75V6.25H127.75ZM127.75 4.5V3.5H126.75V4.5H127.75ZM138.25 4.5H139.25V3.5H138.25V4.5ZM138.25 6.25V7.25H139.25V6.25H138.25ZM129.5 6.25V5.25H128.5V6.25H129.5ZM129.5 11.5H128.5V12.5H129.5V11.5ZM138.25 11.5H139.25V10.5H138.25V11.5ZM138.25 13.25V14.25H139.25V13.25H138.25ZM128.75 13.25V11.5H126.75V13.25H128.75ZM127.75 10.5H126V12.5H127.75V10.5ZM127 11.5V6.25H125V11.5H127ZM126 7.25H127.75V5.25H126V7.25ZM128.75 6.25V4.5H126.75V6.25H128.75ZM127.75 5.5H138.25V3.5H127.75V5.5ZM137.25 4.5V6.25H139.25V4.5H137.25ZM138.25 5.25H129.5V7.25H138.25V5.25ZM128.5 6.25V11.5H130.5V6.25H128.5ZM129.5 12.5H138.25V10.5H129.5V12.5ZM137.25 11.5V13.25H139.25V11.5H137.25ZM138.25 12.25H127.75V14.25H138.25V12.25ZM141.75 13.25H140.75V14.25H141.75V13.25ZM141.75 11.5H142.75V10.5H141.75V11.5ZM140 11.5H139V12.5H140V11.5ZM140 6.25V5.25H139V6.25H140ZM141.75 6.25V7.25H142.75V6.25H141.75ZM141.75 4.5V3.5H140.75V4.5H141.75ZM150.5 4.5H151.5V3.5H150.5V4.5ZM150.5 6.25H149.5V7.25H150.5V6.25ZM152.25 6.25H153.25V5.25H152.25V6.25ZM152.25 9.75V10.75H153.25V9.75H152.25ZM143.5 9.75V8.75H142.5V9.75H143.5ZM143.5 11.5H142.5V12.5H143.5V11.5ZM150.5 11.5H151.5V10.5H150.5V11.5ZM150.5 13.25V14.25H151.5V13.25H150.5ZM143.5 8H142.5V9H143.5V8ZM148.75 8V9H149.75V8H148.75ZM148.75 6.25H149.75V5.25H148.75V6.25ZM143.5 6.25V5.25H142.5V6.25H143.5ZM142.75 13.25V11.5H140.75V13.25H142.75ZM141.75 10.5H140V12.5H141.75V10.5ZM141 11.5V6.25H139V11.5H141ZM140 7.25H141.75V5.25H140V7.25ZM142.75 6.25V4.5H140.75V6.25H142.75ZM141.75 5.5H150.5V3.5H141.75V5.5ZM149.5 4.5V6.25H151.5V4.5H149.5ZM150.5 7.25H152.25V5.25H150.5V7.25ZM151.25 6.25V9.75H153.25V6.25H151.25ZM152.25 8.75H143.5V10.75H152.25V8.75ZM142.5 9.75V11.5H144.5V9.75H142.5ZM143.5 12.5H150.5V10.5H143.5V12.5ZM149.5 11.5V13.25H151.5V11.5H149.5ZM150.5 12.25H141.75V14.25H150.5V12.25ZM143.5 9H148.75V7H143.5V9ZM149.75 8V6.25H147.75V8H149.75ZM148.75 5.25H143.5V7.25H148.75V5.25ZM142.5 6.25V8H144.5V6.25H142.5ZM155.75 13.25H154.75V14.25H155.75V13.25ZM155.75 11.5V10.5H154.75V11.5H155.75ZM157.5 11.5V12.5H158.5V11.5H157.5ZM157.5 9.75V8.75H156.5V9.75H157.5ZM159.25 9.75V10.75H160.25V9.75H159.25ZM159.25 8V7H158.25V8H159.25ZM161 8V9H162V8H161ZM161 6.25H162V5.25H161V6.25ZM159.25 6.25H158.25V7.25H159.25V6.25ZM159.25 4.5H160.25V3.5H159.25V4.5ZM157.5 4.5H156.5V5.5H157.5V4.5ZM157.5 2.75H158.5V1.75H157.5V2.75ZM155.75 2.75H154.75V3.75H155.75V2.75ZM155.75 1V0H154.75V1H155.75ZM159.25 1H160.25V0H159.25V1ZM159.25 2.75H158.25V3.75H159.25V2.75ZM161 2.75H162V1.75H161V2.75ZM161 4.5H160V5.5H161V4.5ZM162.75 4.5H163.75V3.5H162.75V4.5ZM162.75 6.25H161.75V7.25H162.75V6.25ZM164.5 6.25H165.5V5.25H164.5V6.25ZM164.5 8V9H165.5V8H164.5ZM162.75 8V7H161.75V8H162.75ZM162.75 9.75V10.75H163.75V9.75H162.75ZM161 9.75V8.75H160V9.75H161ZM161 11.5V12.5H162V11.5H161ZM159.25 11.5V10.5H158.25V11.5H159.25ZM159.25 13.25V14.25H160.25V13.25H159.25ZM156.75 13.25V11.5H154.75V13.25H156.75ZM155.75 12.5H157.5V10.5H155.75V12.5ZM158.5 11.5V9.75H156.5V11.5H158.5ZM157.5 10.75H159.25V8.75H157.5V10.75ZM160.25 9.75V8H158.25V9.75H160.25ZM159.25 9H161V7H159.25V9ZM162 8V6.25H160V8H162ZM161 5.25H159.25V7.25H161V5.25ZM160.25 6.25V4.5H158.25V6.25H160.25ZM159.25 3.5H157.5V5.5H159.25V3.5ZM158.5 4.5V2.75H156.5V4.5H158.5ZM157.5 1.75H155.75V3.75H157.5V1.75ZM156.75 2.75V1H154.75V2.75H156.75ZM155.75 2H159.25V0H155.75V2ZM158.25 1V2.75H160.25V1H158.25ZM159.25 3.75H161V1.75H159.25V3.75ZM160 2.75V4.5H162V2.75H160ZM161 5.5H162.75V3.5H161V5.5ZM161.75 4.5V6.25H163.75V4.5H161.75ZM162.75 7.25H164.5V5.25H162.75V7.25ZM163.5 6.25V8H165.5V6.25H163.5ZM164.5 7H162.75V9H164.5V7ZM161.75 8V9.75H163.75V8H161.75ZM162.75 8.75H161V10.75H162.75V8.75ZM160 9.75V11.5H162V9.75H160ZM161 10.5H159.25V12.5H161V10.5ZM158.25 11.5V13.25H160.25V11.5H158.25ZM159.25 12.25H155.75V14.25H159.25V12.25Z" fill="white" mask="url(#path-1-outside-1_0_1235)"/>
</g>
</svg>
