<svg width="68" height="15" viewBox="0 0 68 15" fill="none" xmlns="http://www.w3.org/2000/svg">
<g style="mix-blend-mode:hard-light" opacity="0.5">
<mask id="path-1-outside-1_0_1050" maskUnits="userSpaceOnUse" x="0" y="0" width="68" height="15" fill="black">
<rect fill="white" width="68" height="15"/>
<path d="M7 13.25V11.5H5.25V9.75H3.5V8H1.75V6.25H3.5V4.5H5.25V2.75H7V1H10.5V2.75H8.75V4.5H7V6.25H5.25V8H7V9.75H8.75V11.5H10.5V13.25H7ZM17.5 13.25V11.5H15.75V9.75H14V4.5H15.75V2.75H17.5V1H24.5V2.75H26.25V4.5H22.75V2.75H19.25V4.5H17.5V9.75H19.25V11.5H22.75V9.75H26.25V11.5H24.5V13.25H17.5ZM29.75 13.25V11.5H28V9.75H31.5V11.5H36.75V8H29.75V6.25H28V2.75H29.75V1H38.5V2.75H40.25V4.5H36.75V2.75H31.5V6.25H38.5V8H40.25V11.5H38.5V13.25H29.75ZM43.75 13.25V11.5H42V9.75H45.5V11.5H50.75V8H43.75V6.25H42V2.75H43.75V1H52.5V2.75H54.25V4.5H50.75V2.75H45.5V6.25H52.5V8H54.25V11.5H52.5V13.25H43.75ZM57.75 13.25V11.5H59.5V9.75H61.25V8H63V6.25H61.25V4.5H59.5V2.75H57.75V1H61.25V2.75H63V4.5H64.75V6.25H66.5V8H64.75V9.75H63V11.5H61.25V13.25H57.75Z"/>
</mask>
<path d="M7 13.25V11.5H5.25V9.75H3.5V8H1.75V6.25H3.5V4.5H5.25V2.75H7V1H10.5V2.75H8.75V4.5H7V6.25H5.25V8H7V9.75H8.75V11.5H10.5V13.25H7ZM17.5 13.25V11.5H15.75V9.75H14V4.5H15.75V2.75H17.5V1H24.5V2.75H26.25V4.5H22.75V2.75H19.25V4.5H17.5V9.75H19.25V11.5H22.75V9.75H26.25V11.5H24.5V13.25H17.5ZM29.75 13.25V11.5H28V9.75H31.5V11.5H36.75V8H29.75V6.25H28V2.75H29.75V1H38.5V2.75H40.25V4.5H36.75V2.75H31.5V6.25H38.5V8H40.25V11.5H38.5V13.25H29.75ZM43.75 13.25V11.5H42V9.75H45.5V11.5H50.75V8H43.75V6.25H42V2.75H43.75V1H52.5V2.75H54.25V4.5H50.75V2.75H45.5V6.25H52.5V8H54.25V11.5H52.5V13.25H43.75ZM57.75 13.25V11.5H59.5V9.75H61.25V8H63V6.25H61.25V4.5H59.5V2.75H57.75V1H61.25V2.75H63V4.5H64.75V6.25H66.5V8H64.75V9.75H63V11.5H61.25V13.25H57.75Z" fill="black"/>
<path d="M7 13.25H6V14.25H7V13.25ZM7 11.5H8V10.5H7V11.5ZM5.25 11.5H4.25V12.5H5.25V11.5ZM5.25 9.75H6.25V8.75H5.25V9.75ZM3.5 9.75H2.5V10.75H3.5V9.75ZM3.5 8H4.5V7H3.5V8ZM1.75 8H0.75V9H1.75V8ZM1.75 6.25V5.25H0.75V6.25H1.75ZM3.5 6.25V7.25H4.5V6.25H3.5ZM3.5 4.5V3.5H2.5V4.5H3.5ZM5.25 4.5V5.5H6.25V4.5H5.25ZM5.25 2.75V1.75H4.25V2.75H5.25ZM7 2.75V3.75H8V2.75H7ZM7 1V0H6V1H7ZM10.5 1H11.5V0H10.5V1ZM10.5 2.75V3.75H11.5V2.75H10.5ZM8.75 2.75V1.75H7.75V2.75H8.75ZM8.75 4.5V5.5H9.75V4.5H8.75ZM7 4.5V3.5H6V4.5H7ZM7 6.25V7.25H8V6.25H7ZM5.25 6.25V5.25H4.25V6.25H5.25ZM5.25 8H4.25V9H5.25V8ZM7 8H8V7H7V8ZM7 9.75H6V10.75H7V9.75ZM8.75 9.75H9.75V8.75H8.75V9.75ZM8.75 11.5H7.75V12.5H8.75V11.5ZM10.5 11.5H11.5V10.5H10.5V11.5ZM10.5 13.25V14.25H11.5V13.25H10.5ZM8 13.25V11.5H6V13.25H8ZM7 10.5H5.25V12.5H7V10.5ZM6.25 11.5V9.75H4.25V11.5H6.25ZM5.25 8.75H3.5V10.75H5.25V8.75ZM4.5 9.75V8H2.5V9.75H4.5ZM3.5 7H1.75V9H3.5V7ZM2.75 8V6.25H0.75V8H2.75ZM1.75 7.25H3.5V5.25H1.75V7.25ZM4.5 6.25V4.5H2.5V6.25H4.5ZM3.5 5.5H5.25V3.5H3.5V5.5ZM6.25 4.5V2.75H4.25V4.5H6.25ZM5.25 3.75H7V1.75H5.25V3.75ZM8 2.75V1H6V2.75H8ZM7 2H10.5V0H7V2ZM9.5 1V2.75H11.5V1H9.5ZM10.5 1.75H8.75V3.75H10.5V1.75ZM7.75 2.75V4.5H9.75V2.75H7.75ZM8.75 3.5H7V5.5H8.75V3.5ZM6 4.5V6.25H8V4.5H6ZM7 5.25H5.25V7.25H7V5.25ZM4.25 6.25V8H6.25V6.25H4.25ZM5.25 9H7V7H5.25V9ZM6 8V9.75H8V8H6ZM7 10.75H8.75V8.75H7V10.75ZM7.75 9.75V11.5H9.75V9.75H7.75ZM8.75 12.5H10.5V10.5H8.75V12.5ZM9.5 11.5V13.25H11.5V11.5H9.5ZM10.5 12.25H7V14.25H10.5V12.25ZM17.5 13.25H16.5V14.25H17.5V13.25ZM17.5 11.5H18.5V10.5H17.5V11.5ZM15.75 11.5H14.75V12.5H15.75V11.5ZM15.75 9.75H16.75V8.75H15.75V9.75ZM14 9.75H13V10.75H14V9.75ZM14 4.5V3.5H13V4.5H14ZM15.75 4.5V5.5H16.75V4.5H15.75ZM15.75 2.75V1.75H14.75V2.75H15.75ZM17.5 2.75V3.75H18.5V2.75H17.5ZM17.5 1V0H16.5V1H17.5ZM24.5 1H25.5V0H24.5V1ZM24.5 2.75H23.5V3.75H24.5V2.75ZM26.25 2.75H27.25V1.75H26.25V2.75ZM26.25 4.5V5.5H27.25V4.5H26.25ZM22.75 4.5H21.75V5.5H22.75V4.5ZM22.75 2.75H23.75V1.75H22.75V2.75ZM19.25 2.75V1.75H18.25V2.75H19.25ZM19.25 4.5V5.5H20.25V4.5H19.25ZM17.5 4.5V3.5H16.5V4.5H17.5ZM17.5 9.75H16.5V10.75H17.5V9.75ZM19.25 9.75H20.25V8.75H19.25V9.75ZM19.25 11.5H18.25V12.5H19.25V11.5ZM22.75 11.5V12.5H23.75V11.5H22.75ZM22.75 9.75V8.75H21.75V9.75H22.75ZM26.25 9.75H27.25V8.75H26.25V9.75ZM26.25 11.5V12.5H27.25V11.5H26.25ZM24.5 11.5V10.5H23.5V11.5H24.5ZM24.5 13.25V14.25H25.5V13.25H24.5ZM18.5 13.25V11.5H16.5V13.25H18.5ZM17.5 10.5H15.75V12.5H17.5V10.5ZM16.75 11.5V9.75H14.75V11.5H16.75ZM15.75 8.75H14V10.75H15.75V8.75ZM15 9.75V4.5H13V9.75H15ZM14 5.5H15.75V3.5H14V5.5ZM16.75 4.5V2.75H14.75V4.5H16.75ZM15.75 3.75H17.5V1.75H15.75V3.75ZM18.5 2.75V1H16.5V2.75H18.5ZM17.5 2H24.5V0H17.5V2ZM23.5 1V2.75H25.5V1H23.5ZM24.5 3.75H26.25V1.75H24.5V3.75ZM25.25 2.75V4.5H27.25V2.75H25.25ZM26.25 3.5H22.75V5.5H26.25V3.5ZM23.75 4.5V2.75H21.75V4.5H23.75ZM22.75 1.75H19.25V3.75H22.75V1.75ZM18.25 2.75V4.5H20.25V2.75H18.25ZM19.25 3.5H17.5V5.5H19.25V3.5ZM16.5 4.5V9.75H18.5V4.5H16.5ZM17.5 10.75H19.25V8.75H17.5V10.75ZM18.25 9.75V11.5H20.25V9.75H18.25ZM19.25 12.5H22.75V10.5H19.25V12.5ZM23.75 11.5V9.75H21.75V11.5H23.75ZM22.75 10.75H26.25V8.75H22.75V10.75ZM25.25 9.75V11.5H27.25V9.75H25.25ZM26.25 10.5H24.5V12.5H26.25V10.5ZM23.5 11.5V13.25H25.5V11.5H23.5ZM24.5 12.25H17.5V14.25H24.5V12.25ZM29.75 13.25H28.75V14.25H29.75V13.25ZM29.75 11.5H30.75V10.5H29.75V11.5ZM28 11.5H27V12.5H28V11.5ZM28 9.75V8.75H27V9.75H28ZM31.5 9.75H32.5V8.75H31.5V9.75ZM31.5 11.5H30.5V12.5H31.5V11.5ZM36.75 11.5V12.5H37.75V11.5H36.75ZM36.75 8H37.75V7H36.75V8ZM29.75 8H28.75V9H29.75V8ZM29.75 6.25H30.75V5.25H29.75V6.25ZM28 6.25H27V7.25H28V6.25ZM28 2.75V1.75H27V2.75H28ZM29.75 2.75V3.75H30.75V2.75H29.75ZM29.75 1V0H28.75V1H29.75ZM38.5 1H39.5V0H38.5V1ZM38.5 2.75H37.5V3.75H38.5V2.75ZM40.25 2.75H41.25V1.75H40.25V2.75ZM40.25 4.5V5.5H41.25V4.5H40.25ZM36.75 4.5H35.75V5.5H36.75V4.5ZM36.75 2.75H37.75V1.75H36.75V2.75ZM31.5 2.75V1.75H30.5V2.75H31.5ZM31.5 6.25H30.5V7.25H31.5V6.25ZM38.5 6.25H39.5V5.25H38.5V6.25ZM38.5 8H37.5V9H38.5V8ZM40.25 8H41.25V7H40.25V8ZM40.25 11.5V12.5H41.25V11.5H40.25ZM38.5 11.5V10.5H37.5V11.5H38.5ZM38.5 13.25V14.25H39.5V13.25H38.5ZM30.75 13.25V11.5H28.75V13.25H30.75ZM29.75 10.5H28V12.5H29.75V10.5ZM29 11.5V9.75H27V11.5H29ZM28 10.75H31.5V8.75H28V10.75ZM30.5 9.75V11.5H32.5V9.75H30.5ZM31.5 12.5H36.75V10.5H31.5V12.5ZM37.75 11.5V8H35.75V11.5H37.75ZM36.75 7H29.75V9H36.75V7ZM30.75 8V6.25H28.75V8H30.75ZM29.75 5.25H28V7.25H29.75V5.25ZM29 6.25V2.75H27V6.25H29ZM28 3.75H29.75V1.75H28V3.75ZM30.75 2.75V1H28.75V2.75H30.75ZM29.75 2H38.5V0H29.75V2ZM37.5 1V2.75H39.5V1H37.5ZM38.5 3.75H40.25V1.75H38.5V3.75ZM39.25 2.75V4.5H41.25V2.75H39.25ZM40.25 3.5H36.75V5.5H40.25V3.5ZM37.75 4.5V2.75H35.75V4.5H37.75ZM36.75 1.75H31.5V3.75H36.75V1.75ZM30.5 2.75V6.25H32.5V2.75H30.5ZM31.5 7.25H38.5V5.25H31.5V7.25ZM37.5 6.25V8H39.5V6.25H37.5ZM38.5 9H40.25V7H38.5V9ZM39.25 8V11.5H41.25V8H39.25ZM40.25 10.5H38.5V12.5H40.25V10.5ZM37.5 11.5V13.25H39.5V11.5H37.5ZM38.5 12.25H29.75V14.25H38.5V12.25ZM43.75 13.25H42.75V14.25H43.75V13.25ZM43.75 11.5H44.75V10.5H43.75V11.5ZM42 11.5H41V12.5H42V11.5ZM42 9.75V8.75H41V9.75H42ZM45.5 9.75H46.5V8.75H45.5V9.75ZM45.5 11.5H44.5V12.5H45.5V11.5ZM50.75 11.5V12.5H51.75V11.5H50.75ZM50.75 8H51.75V7H50.75V8ZM43.75 8H42.75V9H43.75V8ZM43.75 6.25H44.75V5.25H43.75V6.25ZM42 6.25H41V7.25H42V6.25ZM42 2.75V1.75H41V2.75H42ZM43.75 2.75V3.75H44.75V2.75H43.75ZM43.75 1V0H42.75V1H43.75ZM52.5 1H53.5V0H52.5V1ZM52.5 2.75H51.5V3.75H52.5V2.75ZM54.25 2.75H55.25V1.75H54.25V2.75ZM54.25 4.5V5.5H55.25V4.5H54.25ZM50.75 4.5H49.75V5.5H50.75V4.5ZM50.75 2.75H51.75V1.75H50.75V2.75ZM45.5 2.75V1.75H44.5V2.75H45.5ZM45.5 6.25H44.5V7.25H45.5V6.25ZM52.5 6.25H53.5V5.25H52.5V6.25ZM52.5 8H51.5V9H52.5V8ZM54.25 8H55.25V7H54.25V8ZM54.25 11.5V12.5H55.25V11.5H54.25ZM52.5 11.5V10.5H51.5V11.5H52.5ZM52.5 13.25V14.25H53.5V13.25H52.5ZM44.75 13.25V11.5H42.75V13.25H44.75ZM43.75 10.5H42V12.5H43.75V10.5ZM43 11.5V9.75H41V11.5H43ZM42 10.75H45.5V8.75H42V10.75ZM44.5 9.75V11.5H46.5V9.75H44.5ZM45.5 12.5H50.75V10.5H45.5V12.5ZM51.75 11.5V8H49.75V11.5H51.75ZM50.75 7H43.75V9H50.75V7ZM44.75 8V6.25H42.75V8H44.75ZM43.75 5.25H42V7.25H43.75V5.25ZM43 6.25V2.75H41V6.25H43ZM42 3.75H43.75V1.75H42V3.75ZM44.75 2.75V1H42.75V2.75H44.75ZM43.75 2H52.5V0H43.75V2ZM51.5 1V2.75H53.5V1H51.5ZM52.5 3.75H54.25V1.75H52.5V3.75ZM53.25 2.75V4.5H55.25V2.75H53.25ZM54.25 3.5H50.75V5.5H54.25V3.5ZM51.75 4.5V2.75H49.75V4.5H51.75ZM50.75 1.75H45.5V3.75H50.75V1.75ZM44.5 2.75V6.25H46.5V2.75H44.5ZM45.5 7.25H52.5V5.25H45.5V7.25ZM51.5 6.25V8H53.5V6.25H51.5ZM52.5 9H54.25V7H52.5V9ZM53.25 8V11.5H55.25V8H53.25ZM54.25 10.5H52.5V12.5H54.25V10.5ZM51.5 11.5V13.25H53.5V11.5H51.5ZM52.5 12.25H43.75V14.25H52.5V12.25ZM57.75 13.25H56.75V14.25H57.75V13.25ZM57.75 11.5V10.5H56.75V11.5H57.75ZM59.5 11.5V12.5H60.5V11.5H59.5ZM59.5 9.75V8.75H58.5V9.75H59.5ZM61.25 9.75V10.75H62.25V9.75H61.25ZM61.25 8V7H60.25V8H61.25ZM63 8V9H64V8H63ZM63 6.25H64V5.25H63V6.25ZM61.25 6.25H60.25V7.25H61.25V6.25ZM61.25 4.5H62.25V3.5H61.25V4.5ZM59.5 4.5H58.5V5.5H59.5V4.5ZM59.5 2.75H60.5V1.75H59.5V2.75ZM57.75 2.75H56.75V3.75H57.75V2.75ZM57.75 1V0H56.75V1H57.75ZM61.25 1H62.25V0H61.25V1ZM61.25 2.75H60.25V3.75H61.25V2.75ZM63 2.75H64V1.75H63V2.75ZM63 4.5H62V5.5H63V4.5ZM64.75 4.5H65.75V3.5H64.75V4.5ZM64.75 6.25H63.75V7.25H64.75V6.25ZM66.5 6.25H67.5V5.25H66.5V6.25ZM66.5 8V9H67.5V8H66.5ZM64.75 8V7H63.75V8H64.75ZM64.75 9.75V10.75H65.75V9.75H64.75ZM63 9.75V8.75H62V9.75H63ZM63 11.5V12.5H64V11.5H63ZM61.25 11.5V10.5H60.25V11.5H61.25ZM61.25 13.25V14.25H62.25V13.25H61.25ZM58.75 13.25V11.5H56.75V13.25H58.75ZM57.75 12.5H59.5V10.5H57.75V12.5ZM60.5 11.5V9.75H58.5V11.5H60.5ZM59.5 10.75H61.25V8.75H59.5V10.75ZM62.25 9.75V8H60.25V9.75H62.25ZM61.25 9H63V7H61.25V9ZM64 8V6.25H62V8H64ZM63 5.25H61.25V7.25H63V5.25ZM62.25 6.25V4.5H60.25V6.25H62.25ZM61.25 3.5H59.5V5.5H61.25V3.5ZM60.5 4.5V2.75H58.5V4.5H60.5ZM59.5 1.75H57.75V3.75H59.5V1.75ZM58.75 2.75V1H56.75V2.75H58.75ZM57.75 2H61.25V0H57.75V2ZM60.25 1V2.75H62.25V1H60.25ZM61.25 3.75H63V1.75H61.25V3.75ZM62 2.75V4.5H64V2.75H62ZM63 5.5H64.75V3.5H63V5.5ZM63.75 4.5V6.25H65.75V4.5H63.75ZM64.75 7.25H66.5V5.25H64.75V7.25ZM65.5 6.25V8H67.5V6.25H65.5ZM66.5 7H64.75V9H66.5V7ZM63.75 8V9.75H65.75V8H63.75ZM64.75 8.75H63V10.75H64.75V8.75ZM62 9.75V11.5H64V9.75H62ZM63 10.5H61.25V12.5H63V10.5ZM60.25 11.5V13.25H62.25V11.5H60.25ZM61.25 12.25H57.75V14.25H61.25V12.25Z" fill="white" mask="url(#path-1-outside-1_0_1050)"/>
</g>
</svg>
